/* XPM */
static char *_161a46462864417ad47696c8b19a4f9[] = {
/* columns rows colors chars-per-pixel */
"64 64 167 2 ",
"   c #050506",
".  c #040407",
"X  c #050407",
"o  c #040507",
"O  c #050507",
"+  c #040406",
"@  c #060407",
"#  c #060507",
"$  c #040606",
"%  c #050606",
"&  c #040607",
"*  c #050607",
"=  c #040707",
"-  c #050707",
";  c #060607",
":  c #060707",
">  c #040405",
",  c #010203",
"<  c #040308",
"1  c #050308",
"2  c #060308",
"3  c #020508",
"4  c #030508",
"5  c #020409",
"6  c #020608",
"7  c #020708",
"8  c #030708",
"9  c #020709",
"0  c #030709",
"q  c #03070A",
"w  c #040408",
"e  c #050408",
"r  c #040508",
"t  c #050508",
"y  c #050409",
"u  c #050509",
"i  c #060408",
"p  c #070408",
"a  c #060508",
"s  c #070508",
"d  c #070409",
"f  c #060509",
"g  c #070509",
"h  c #040608",
"j  c #050608",
"k  c #050708",
"l  c #050609",
"z  c #040709",
"x  c #050709",
"c  c #060608",
"v  c #060708",
"b  c #060609",
"n  c #070609",
"m  c #060709",
"M  c #070709",
"N  c #04050A",
"B  c #06050A",
"V  c #05070A",
"C  c #06060A",
"Z  c #07060A",
"A  c #06070A",
"S  c #07070A",
"D  c #07060B",
"F  c #07060C",
"G  c #050609",
"H  c #08050A",
"J  c #08060A",
"K  c #08070A",
"L  c #09070A",
"P  c #08060A",
"I  c #020808",
"U  c #020809",
"Y  c #030809",
"T  c #030909",
"R  c #03080A",
"E  c #050808",
"W  c #040809",
"Q  c #050809",
"!  c #060809",
"~  c #070809",
"^  c #060909",
"/  c #070909",
"(  c #05080A",
")  c #05090A",
"_  c #04080B",
"`  c #04090B",
"'  c #06080A",
"]  c #07080A",
"[  c #07090A",
"{  c #06080B",
"}  c #07080B",
"|  c #06090B",
" . c #07090B",
".. c #050A0B",
"X. c #060A0A",
"o. c #070A0A",
"O. c #070A0B",
"+. c #060B0B",
"@. c #070B0B",
"#. c #05080C",
"$. c #05090C",
"%. c #06090C",
"&. c #07090C",
"*. c #060A0C",
"=. c #060A0D",
"-. c #060B0D",
";. c #070B0D",
":. c #070C0C",
">. c #060C0D",
",. c #060C0E",
"<. c #070E0F",
"1. c #05090A",
"2. c #08080A",
"3. c #08080B",
"4. c #09090B",
"5. c #080A0B",
"6. c #08080C",
"7. c #08090C",
"8. c #09090C",
"9. c #09080D",
"0. c #0A090D",
"q. c #080A0C",
"w. c #090A0C",
"e. c #080A0D",
"r. c #090A0D",
"t. c #090B0D",
"y. c #0A0A0D",
"u. c #0A0B0D",
"i. c #080C0C",
"p. c #090C0D",
"a. c #090D0D",
"s. c #0A0C0D",
"d. c #0B0C0D",
"f. c #080C0E",
"g. c #090C0F",
"h. c #080D0F",
"j. c #0A0C0E",
"k. c #0A0C0F",
"l. c #0B0C0F",
"z. c #0A0D0F",
"x. c #0B0D0F",
"c. c #080E0E",
"v. c #080E0F",
"b. c #090F0F",
"n. c #0D0D0F",
"m. c #090B0D",
"M. c #070E10",
"N. c #0A0E10",
"B. c #0B0E12",
"V. c #0C0D10",
"C. c #0C0E10",
"Z. c #0D0E12",
"A. c #0E0F13",
"S. c #0A0E11",
"D. c #0C1012",
"F. c #0D1014",
"G. c #0E1014",
"H. c #0F1114",
"J. c #0C1314",
"K. c #0E1314",
"L. c #0D1114",
"P. c #101214",
"I. c #101115",
"U. c #141519",
"Y. c #11181B",
"T. c #141B1B",
"R. c #14191C",
/* pixels */
", , , , , , i , , , , , , i i , , , + , , . . . . . i 3 , l.;.6 <.R.l., 3 i . . . . . , , + , , , i i , , , , , , i , , , , , , ",
", , , , , i i i . , , , 3 u.u.. + , , , i u.u.i 3 3 , , I <.} I 3 3 } I , 3 3 3 i u.u.i , , , + i u.u.3 , , , . i i i , , , , , ",
", , , , , u.i i , 3 3 3 . } } + , + 3 , i } . . 3 3 , , } ;.6 6 , , , } 6 3 3 3 } l.u.i , 3 + , + } } . 3 3 3 , i i u., , , , , ",
", , , , , } i i , , Z.Z.i 3 . i i i i , , , , , , 6 6 , 3 , , 3 , , , , 3 6 , , 3 3 3 , , i i i i . 3 i K.K., , i i } , , , , , ",
", , , , , , i i 3 , } 2., , , u.u.3 , , , , , , , 3 . 3 6 6 i i , , , , 3 } , , , , , , , , 3 u.u., , , Z.I., 3 i i , , , , , , ",
"i i . , i u.u.u.l.2.. , , , . u.. 3 , , i , 3 u.3 , , , , , , 3 . , , i i 6 , , . , , , , , 3 . u.i , , 3 i u.l.u.u.u.i , . i i ",
"i i 3 l.l.u.i 3 3 3 . , , , , i . 3 , , , , } D.. , , , , , , i u.i F i , 3 , , . , , , , , 3 . } 3 , , , . 3 , , . u.l.l.3 i i ",
", , , . . i , , , , 3 , , , , . . . , , , , u.B.3 , , , , , , , , , i . , , , , ;.. , , , , , . . , , , , . , , , , i . . , , , ",
", , , , , 3 , , , , , , , , , . . i , , , , i 6 , , , , u.i , , , , i i , , , , 3 i , , , , , , . , , , , , , , , , 3 , , , , , ",
", , + , , , , , , 3 . . , , , . . K i , , . i , , , , , i i , , , + i . , , , , , i , , , + , , . , , , . . , , , , , , , + , , ",
"K i . , , , , , , . l.3 , , , , + K . , , i i , , , , , , , , , , , , , , i , , , i + , , + . , , , , , 3 l.. , , , , , , . i K ",
". . . , , , , , , , . , , , , , + i , , , K + , , , , , 3 . , , , , , } . i 1 1 , + i , , , i + , , , , , . , , , , , , , . . . ",
", , + . + . , , , , . , , . , , + i , + + + , , + , , , , , , , , , , } . i + 1 , , + + + , K i , , . , , . , , , , . + . + , , ",
", , . 2.. , , . , , . l.K.3 , , , i + + , , , , , , , , , , , , , , , , 3 , , , , , , , + + u.i , , 3 D.l.i . , . , , . 2.. , , ",
", , , . . . i i . , . l.K.3 , 3 , + , , , , , , , , , , , , , , , 3 , , , , , , , , , , , , i i . , 3 D.<.. i i i . . . . , , , ",
", , , , , , , i . , . 3 } , , 3 . , , , + + , , , , , , , , , , , , , , , , , , , , , , , , , . , , , } . , , 3 i , , , , , , , ",
", , , , , , , , , . 3 , , , , , , 3 . , , + , , , , , , , , } i , , , , , , , , , , , , , . 3 , , , , , . , , , , , , , , , , , ",
", , , , , , , , , + , 3 } 3 , , , } l., , , , , , , , , , , i . , , , , , , , , , , , , , } 3 , , , , . l.3 , , , , , , , , , , ",
", , , , , , , , , , 3 3 3 , , , , . u.. , , , , , , , , , , , , , , , , , , , , , , , , , , , , , , , } 3 . , , , , , , , , , , ",
". , , , , , , , , , } I i , , , 3 K.Z., , , , , , , , , , . } } 3 , , , , , , , , , , , , , . 3 , , 3 3 3 . , , , , , , , , , . ",
". , , , , , , , , , . 6 ;.3 3 3 l.U.u., , , , , , , , , , , 3 } , , , , , , , , , , , , , } 2., , . 3 , , , , , , , , , , , , . ",
"K , , , , , , , , , } ;.6 } ;.} 6 i u., , , , , , , , , , , , , } } 3 , , , , , , , , , , 2., , , , , , , 3 , , , , , , , , , K ",
", , , , + , , , , , i ;.3 , 3 i i . . , , , , , , , , , . , , , 3 } } . , , , , , , , , , , , , , , , , , 3 , , . , , + , , , , ",
", , , , i , , , , 3 2.i 3 , 3 i i , , , , , , , , , , l.i.3 , , , 3 3 l.u., , , , , , , , , , , , 3 , , , . , , , , , . , , , , ",
". i } l.K.i 3 , , 3 , , , , 3 3 , , , , , . . + , + K n.} , 3 6 , , , } n.K + , + . . , , , , , 3 ;.;., , , 3 , , , , l.l.} 3 , ",
"} } } l.B.6 } , , . 3 , , , , , , , , , , . i + , , K , , , 3 3 , , , 3 , . , , . i . , 3 , , , , ;.6 , , , } , , , , } l.} i , ",
"3 3 3 <.Y.l.<.3 3 , . , , , , , , 3 , . . , . , , , + , , , , , , , , , , , , , . . 3 } l., , , 3 I , , , , 3 3 , , 3 } } 3 3 3 ",
", 3 3 I D.<.B.I 3 , = = 3 3 , , . 3 . l.. , , , , , , , , , , , , , , , , , , 3 3 3 i l.l.. 2.l.} , , , , , , 3 3 3 3 i 6 3 3 , ",
", i <.K.I 3 } , , , = } , , , , , 3 3 I 3 , , , , , , , , , , , , + . , , , , 3 , , 6 3 , , , , , , , , , , , , I D.} 3 D.<.i , ",
". . 3 I } 3 , , , , , 3 , , , , , } I = , , , 3 i . , , , , 3 , , , , , , , , . i 3 3 , , , 3 , , , , , , , , , I <.l.3 3 3 . . ",
", , , , l.<., , , , , , , , , , , 3 I 3 3 . 3 3 u.} . , , , } . , 3 , , , 3 3 . u.l.3 , , , 3 , , , , , , , 3 , 3 I l., , , , , ",
", , , , <.D.3 3 3 3 3 3 , , , , , 3 } } 3 , , , 3 l.K.K.} 3 } } ;.} 3 i } . 3 , , , , , , 3 3 , , , , , , , 3 } 3 3 B.. , , , , ",
", , , , i ;.;.l.l.<.;.} l.} , , , 3 l.l.i , , , , , } i , , , , 3 3 , , , , , , , , , , , . 3 , , , . } , , , ;.l.;.;.. , , , , ",
", , , , i } 2.. , , } } , , , 3 3 , , , , , , , , , } , , 3 , , , , , , , , , , , , , , , , , , , , 3 3 . , , , i u.} i , , , , ",
", , , . i . , , , , 3 , , , , , , , 3 , . , , , , , 3 . , , , , , , , , , , , , , , , , , , , , , } 3 3 3 3 , , , . . i . , , , ",
", , , + . , , , , , , , , , , , , , 3 I 3 3 3 , , , , , , , , , . 3 , , , , , , , , , , , , , , , 3 , , } , , . , , , . + , , , ",
", , , , , , . , , , , , , , , , , 3 I <.6 3 3 , , , , , , , , , , , , , , , , , , , , , , , , , 3 , u.i , i , , , i , , , , , , ",
"3 3 3 <.Y.l.<.6 I , , , , , , , , } 3 D.} 3 . . , , , , , , , , , , , , , , , , , , , . 2., , , , 3 3 , 6 D.3 I 6 <.l.Y.<.3 3 3 ",
"} } } l.B.6 } 3 } 2., , , , , , , 3 3 3 , . i + , , , , , , 3 . , , , , , , , , , , , , 3 , , , , , ;., , 3 B.} 3 } 6 B.l.} } } ",
". i } l.K.i 6 , , 3 , , , , 3 , , , , , , + + + , + . . } , 3 3 3 , , = . , , , , , + , , , , , , , ;., , , } , , 6 i K.l.} i . ",
", , , , . , , , , , 2.} i 3 3 . i . , , , , , , , , , u.i.3 3 , , , , . , , , , , , , , , , , , , , i 6 . l.. , , , , i , , , , ",
", , , , + , , , , , 3 3 , , , , . , , , , , , , , , , , = } , , 3 , , , , , , , , , , , , . , , , , , 6 } . , , + , , + , , , , ",
"K , , , , , , , , , , , , , , . 6 i 2., , , , , , , , , , , , , l.. , , , , , , , , , , , u., , , , , , 3 3 , , , , , , , , , K ",
". , , , , , , , , , , , , 3 i 3 } Z.2., , , , , , , , , , , , , . . . , , , , , , , , , , 2.. , , , , , , , , , , , , , , , , . ",
". , , , , , , , , , . 3 B.;.3 , , . 2., , , , , , , , , , , , 3 3 3 . , , , , , , , , , , u.i , , , , } 3 . , , , , , , , , , . ",
", , , , , , , , , , . I B.3 , , , . } . , , , , , , , , , , 3 3 , , , , , , , , , , , , . 2.i , , , , <.I . , , , , , , , , , , ",
", , , , , , , , , + } l.} 3 , , , 2.u., , , , , , , , , , , 3 . 3 , , , , , , , , , , , , l.u.3 3 , 3 K.l.i + , , , , , , , , , ",
", , , , , , , , , . } I 3 , , , , 3 + , , + , , , , , , , , 3 , . , , , , , , , , , + , , . 3 , , , , } , 3 + , , , , , , , , , ",
", , , , , , , i . . i } } , , 3 . , , , + + , , , , , , , , , 3 . . , , , , , , , , + + , , , . 3 , , . , , . . i , , , , , , , ",
", , , . . . i i i i } l.K.3 , . i i , , , , , , , , , , , i 3 3 } } i , , , , , , , , , , , 1 i . , 3 l.3 i i i i . . . . , , , ",
", , . 2.i , , . , . i l.K.3 , 3 i u.+ + , , + , , , , 3 3 l., , 3 } } 3 3 , , , , + , , + + u.i , , 3 D.} i . , + , , i 2.. , , ",
", , + . + . , , , , . , , . , , i K , + + i , , i + i . u.} , , , , , } . . + i , , i + + , K i , , . , , . , , , , . + . + , , ",
". . . , , , , , , , . , , , , , + i , , , K + , 1 1 i . } . , , , , , i . i + + , + K , , , i + , , , , , . , , , , , , , . . . ",
"K i . , , , , , , . l.3 , , , , + K . , , i i , , , i , , , , , , , , , , . , , , i i , , . K + , , , , 3 l.. , , , , , , . i K ",
", , + , , , , , , 3 2.. , , , . . K i , , . i , , , , , . , , , , + + , , , , , , i . , , i K . . , , , . 2.3 , , , , , , + , , ",
", , , , , 3 , , , , 3 . , , , . . i , , , , i , , , , , K , , , , , , , , , 3 , 6 i , , , , i . . , , , . 3 , , , , 3 , , , , , ",
", , , . . i 3 , , , u.3 , , , . . . , , , , i , , 3 , , , , , , , , , , , , i ;.B.u., , , , . . . , , , 3 u., , , , i . . , , , ",
"i i 3 l.l.u.i 3 3 i K.. , , 3 } . 3 , , , , . , , 3 , , , , , i u.i i , , , i D.K.} , , , , 3 . } 3 , , . K.i 3 3 i u.l.l.3 i i ",
"i i . , i u.u.u.l.K.R.i , , i u.. 3 , , i , 3 . 3 , , , , , , i i , , , , , , } Z.i , i , , 3 . u.. , , i R.K.l.u.u.u.i , . i i ",
", , , , , , i i 3 , R.I., , , u.u.3 , , , , , , , , , , 3 , . u.3 , , 3 , , , , , , , , , , 3 u.u., , , I.R., 3 i i , , , , , , ",
", , , , , i i i , , K.K.i 3 . i i i i , , 3 3 3 , , 3 6 6 , , 3 , , , , 6 3 , , , , 3 , , i i i . . 3 i K.K., , i i } 3 , , , , ",
", , , , , u.i i , 3 3 3 . } } + , + 3 , i u.l.} 3 3 , , <.;.6 I 3 , , } i 3 , , 3 u.u.i , 3 + , + } } . 3 3 3 , i i u., , , , , ",
", , , , , i i i . , , , 3 u.u.i + , , , i u.u.i 3 3 , , 3 <.} I 3 <.;.I , 3 3 3 i u.u.i , , , + . u.u.3 , , , . i i i , , , , , ",
", , , , , , i , , , , , , i i , , , + , , . . . . . 3 , , l.;.6 <.T.l., 3 i . . . . . , , + , , , i i , , , , , , i , , , , , , "
};
