/* XPM */
static char *e7a90c6d34a1490b86bce68db4f4ec0f[] = {
/* columns rows colors chars-per-pixel */
"64 64 176 2 ",
"   c #020203",
".  c #080703",
"X  c #0D0A04",
"o  c #050609",
"O  c #08070A",
"+  c #06090A",
"@  c #090A0D",
"#  c #110E05",
"$  c #161207",
"%  c #191407",
"&  c #1A1508",
"*  c #1E1809",
"=  c #0D0E12",
"-  c #0E1114",
";  c #101115",
":  c #151A1C",
">  c #231D0B",
",  c #27200C",
"<  c #2C240E",
"1  c #31270F",
"2  c #31280F",
"3  c #342B10",
"4  c #392F12",
"5  c #3C3113",
"6  c #3E3916",
"7  c #413514",
"8  c #433A16",
"9  c #4A3C17",
"0  c #4E3F18",
"q  c #46401A",
"w  c #4C431A",
"e  c #4F481C",
"r  c #534319",
"t  c #58471B",
"y  c #524B1E",
"u  c #5B4A1C",
"i  c #5A531F",
"p  c #614F1E",
"a  c #65521F",
"s  c #554D20",
"d  c #5D5522",
"f  c #625622",
"g  c #6A5620",
"h  c #645B24",
"j  c #6C5A23",
"k  c #725D23",
"l  c #6B6225",
"z  c #6C6229",
"x  c #776125",
"c  c #7B6426",
"v  c #736926",
"b  c #716729",
"n  c #756A2B",
"m  c #796F2C",
"M  c #7D732B",
"N  c #7E7230",
"B  c #816927",
"V  c #826A28",
"C  c #866D29",
"Z  c #856C29",
"A  c #856B29",
"S  c #886E2A",
"D  c #896F2A",
"F  c #81772B",
"G  c #8B702A",
"H  c #8D722B",
"J  c #8E732B",
"K  c #8D722B",
"L  c #847A2D",
"P  c #897E2E",
"I  c #90752C",
"U  c #93772D",
"Y  c #91762C",
"T  c #93782D",
"R  c #95792E",
"E  c #967A2E",
"W  c #95792E",
"Q  c #987B2E",
"!  c #9B7D2F",
"~  c #9A7D2F",
"^  c #9A7D2F",
"/  c #817431",
"(  c #857A31",
")  c #8A7D34",
"_  c #9D7F30",
"`  c #9C7F30",
"'  c #8C822E",
"]  c #90862F",
"[  c #8D8035",
"{  c #928534",
"}  c #9E8030",
"|  c #9E8030",
" . c #958A31",
".. c #988D32",
"X. c #958739",
"o. c #978839",
"O. c #9A8B3B",
"+. c #9E9234",
"@. c #A08231",
"#. c #A18231",
"$. c #A28431",
"%. c #A38533",
"&. c #A58633",
"*. c #A68733",
"=. c #A58734",
"-. c #A68734",
";. c #A38532",
":. c #A78834",
">. c #A78834",
",. c #A88935",
"<. c #A98A35",
"1. c #A98A36",
"2. c #AA8B36",
"3. c #AB8C37",
"4. c #A98B36",
"5. c #A38C3B",
"6. c #AB8C38",
"7. c #AC8D38",
"8. c #AD8E39",
"9. c #AE8F39",
"0. c #AD8E38",
"q. c #A19535",
"w. c #A59936",
"e. c #A99D36",
"r. c #A1923E",
"t. c #AF903A",
"y. c #AF913A",
"u. c #B0913B",
"i. c #B1923B",
"p. c #B1933C",
"a. c #B2933C",
"s. c #B3943D",
"d. c #B4953E",
"f. c #B5963E",
"g. c #B6973F",
"h. c #B3943D",
"j. c #B6983F",
"k. c #AEA238",
"l. c #B2A539",
"z. c #B6A93B",
"x. c #BAAD3C",
"c. c #BEB13D",
"v. c #C3B53E",
"b. c #A69540",
"n. c #AC9B42",
"m. c #B09640",
"M. c #B79840",
"N. c #B69940",
"B. c #B89A41",
"V. c #B99B42",
"C. c #B99A41",
"Z. c #BA9C42",
"A. c #BB9D43",
"S. c #BA9C43",
"D. c #BA9C42",
"F. c #B4A245",
"G. c #BEA245",
"H. c #BEA847",
"J. c #BDAA48",
"K. c #C1A546",
"L. c #C2A847",
"P. c #C4AC49",
"I. c #C8AF4B",
"U. c #C6B740",
"Y. c #C6B840",
"T. c #CBBC41",
"R. c #C4B14B",
"E. c #CAB44C",
"W. c #CEB94E",
"Q. c #D0BC4F",
"!. c #D1BD50",
"~. c #CFC042",
"^. c #D3C444",
"/. c #D7C845",
"(. c #DCCC46",
"). c #E1D148",
/* pixels */
"            o             o o       o     o o o o o o     @ @ o @ : @     o   o o o o     o       o o             o             ",
"          o o o o         @ @ o o       o @ @ o         o @ + o     + o         o @ @ o       o o @ @         o o o o           ",
"          @ o o         o + + o   o     o + o                                   o @ @ o     o   o + + o         o o @           ",
"          o o o     = = o   o o o o o                                                     o o o o o   o - -     o o +           ",
"            o o     + @       @ @                                                             @ @       = ;   o o o             ",
"o o o   o @ @ @ @ @ o       o @ o               . . X X X X X X X X X X X X X . .               @ o       o @ = @ @ @ o   o o o ",
"o o   @ @ @ o       o         o             . % , 4 7 0 r u p a a a u t r 9 5 2 > #             o         o       o @ @ @   o o ",
"      o o o                           . X # > 5 r a k V G E ! @.| | Q U C c j u 9 < $ X .                 o         o o o       ",
"                                    . % 1 0 a c C H U E ! | @.$.$.@.@._ ! E U G V k u 7 > #                                     ",
"    o               o           . $ > 5 u c U @.;.-.:.1.1.1.1.1.1.1.1.1.1.:.:.;.;.! H j 0 2 % X         o o               o     ",
"O o o             o @         . $ 7 a c H Q @.-.1.7.7.u.a.s.d.d.d.d.s.s.u.t.7.3.1.$._ U D k t < X .       @ o             o o O ",
"o o o                     . X > 7 g H _ -.1.1.7.u.a.d.d.M.V.V.Z.Z.Z.V.V.M.d.s.a.t.6.1.:.;.E B t 2 % .                     o o o ",
"    o o o o               X * r C T | -.1.7.a.d.V.V.V.Z.Z.Z.Z.Z.Z.Z.Z.Z.Z.V.V.V.M.d.u.7.1.$.! H k 5 $ .             o o o o     ",
"    o O o             . X < r c | ;.1.7.u.d.M.V.A.G.G.K.K.K.L.L.L.L.K.K.K.K.G.A.Z.V.d.a.t.3.:.@.I a 7 * .             o @ o     ",
"      o o o o o       X * t E | ;.1.7.s.M.V.Z.Z.G.K.P.R.E.W.W.W.W.W.W.E.R.P.L.K.A.Z.Z.V.d.u.7.:.@.! c 5 $ .     o o o o o       ",
"                    . , r c ;.:.1.t.d.M.Z.A.G.K.P.R.E.W.J.n.r.o.o.o.o.O.n.H.P.P.L.K.G.Z.V.d.s.7.1.;.U g 5 $ .                   ",
"                  . # 9 U _ ;.1.u.d.Z.Z.A.G.P.E.W.Q.!.!.n.( z y y y y f ( n.R.W.W.P.K.G.Z.Z.V.s.7.:.@.! j , X                   ",
"                  % 7 j ! ;.1.t.d.V.Z.G.K.P.E.W.P.N.r.X.[ ( L L L L L M n / r.H.E.W.R.P.G.A.Z.M.s.7.1.@.C r < .                 ",
"                  < k H $.1.t.d.Z.Z.A.K.P.W.W.W.F.[ n d b P w.x.x.x.x.w.l f N r.R.W.W.E.L.G.Z.Z.V.a.7.:.! A r X                 ",
"o             . % 9 C _ :.7.s.M.Z.G.K.P.E.P.F.O.[ ( P P q.x.Y.^.^.^.^.c...L L ( ( o.n.J.E.P.G.A.V.d.u.1.@.E g , #             o ",
"o             # 2 p ! :.1.u.M.Z.A.K.P.W.E.F.X.n n P +.z.T.).).).).).)./.v.e. .M d z ) n.W.E.P.G.Z.V.d.7.1.;.c 9 >             o ",
"O             * r c | 1.t.d.Z.A.K.P.W.W.J.X.( [ +.x.U.~./.).).).).).).(./.T.v.k. .M f X.E.E.E.P.G.Z.M.a.3.;.H j 4             O ",
"            . < k U @.3.s.M.Z.G.P.W.W.E.N.N M w.v.(.).).).).).).).).).).).).)./.v.' w / J.E.Q.R.K.G.V.d.t.:.! H r X             ",
"          . % 9 C | -.7.M.V.Z.L.E.W.E.n.X.L  .v./.(.).).).).).).).).).).).).).(./.q.h ( n.P.!.W.P.H.Z.V.s.1.$.! a > #           ",
"o o o o   X < u U -.1.a.V.A.G.P.W.Q.R.X./ P w.^.).).).).).).^.v.Y.T./.).).).).).).l.v ( r.J.!.W.E.K.A.A.d.7.1.;.x 5 *   o o     ",
"o +       $ 7 g E :.7.s.Z.G.K.E.!.!.P.( n  .z./.).).).).).(.e.F ' +.Y.).).).).).).l.v ( r.J.!.!.W.P.K.A.M.u.1.;.V r ,       o   ",
"          $ w c ! 1.t.d.Z.K.P.W.!.!.J.m l +.v./.).).).).).(...h l P v.).).).).).).l.v ( r.J.!.!.W.R.L.G.V.a.7.;.G g 3           ",
"          % u A _ 1.a.M.Z.K.R.W.!.!.J.n h q.v./.).).).).).(...h l F c.).).).).).).l.v ( r.J.!.!.Q.E.P.G.V.d.7.;.U c 5           ",
"  o       * a H | 1.s.V.Z.L.W.W.!.!.J.m l +.v./.).).).).).(.l.' F P q.k.w.q.q.q.q.P l [ F.R.!.!.Q.W.I.G.V.j.t.;.E A 7           ",
"o o       > g E @.3.d.V.Z.P.W.W.!.!.J./ b ..x./.).).).).).)./.Y.e.] M h w 8 8 8 8 y h o.W.W.!.!.!.W.R.G.Z.M.u.;.! I 9         o ",
"          > k ! @.3.j.V.Z.P.W.Q.!.!.R.O.( P q.^.).).).).).).(./.Y.l.q.' M l i y q d / n.!.!.!.!.!.Q.E.K.Z.V.a.-.| Q 0           ",
"          > c @.$.7.V.Z.Z.P.Q.!.!.!.E.F.o.n P T.).).).).).).).).(.(.(./.T.z...M h / n.J.!.!.!.!.!.Q.E.K.Z.Z.s.-.@.| r           ",
"          > c @.$.7.V.Z.Z.P.Q.!.!.!.W.R.n.m m q.x.~./.).).).).).).).).(./.~.c.w.P ( ) n.!.!.!.!.!.Q.E.K.Z.Z.s.-.@.| r           ",
"          > c @.@.7.V.Z.Z.P.Q.!.!.!.!.!.H.N l v ] x.T.(.(.(.).).).).).).).).).T.k.' h o.!.!.!.!.!.Q.E.K.Z.Z.s.-.@.| r           ",
"          > k ! @.3.j.V.Z.P.W.Q.!.!.!.W.F.N d y i l M ' q.z.Y./.(.).).).).).)./.T...d [ R.W.!.!.!.Q.E.K.Z.V.a.-.| Q 0           ",
"          > j E @.3.d.V.Z.P.W.Q.!.!.W.R.n.N d q 6 6 w d M ..k.v.^.(.).).).).).).).w.i ( F.R.!.!.!.W.R.G.Z.M.u.;.! U 9           ",
"          * a H | 1.s.V.Z.L.W.W.!.!.E.n.{ L P ..+.+.w.e.z.x.] v q.Y./.).).).).).).e.h ( n.J.!.!.Q.W.I.G.V.j.t.;.E A 7           ",
"          % u A _ 1.a.M.Z.K.R.W.!.!.R.X.M ' e.^.).).).)./.~.M 8 F z.^.).).).).).).l.v ( r.J.!.!.Q.E.P.G.V.d.7.;.U c 5           ",
"+ +       $ w c ! 1.t.d.Z.K.P.W.!.!.R.X.M ' e.^.).).).).^.v.M w M w.T.).).).).).).l.v ( r.J.!.!.W.R.L.G.V.s.7.;.D g 3       o + ",
"o o o o   # 7 g E :.7.s.Z.G.K.E.!.!.R.X.M ' e.^.).).).).^.c.P f F w.T.).).).).).).k.l ( r.J.!.!.W.P.K.A.V.u.1.;.B t ,       o o ",
"          X < t U -.1.a.V.A.G.P.W.Q.R.X.M ' e.^.).).).)./.~.+.M +.x.^.).).).).).).e.l ( n.J.!.W.E.K.A.Z.d.7.1.;.x 7 *           ",
"          . % 8 C | -.7.M.V.Z.L.E.W.R.X.M ' e.^.).).).).(./.x.w.z.T./.).).).).(./.q.d ( F.R.!.W.P.H.Z.V.s.1.$._ a > #           ",
"O           . < k T @.3.s.M.Z.K.P.W.R.X.M ' e.^.).).).).).(./.^./.(.(.).).).)./.v.{ y ) E.W.Q.R.K.G.V.d.t.:.! H r X .         O ",
"o             * r c | 1.t.d.Z.A.K.P.P.b.[ M ' x.^.(.).).).).).).).).).).).(./.x. .M j O.!.W.E.P.G.Z.M.a.7.;.J j 5             o ",
"o             # 2 p ! :.3.u.V.Z.A.K.L.J.r.h h  .x./.).).).).).).).).).).)./.v. .i j ) n.!.E.P.G.Z.V.d.7.1.;.c 9 >             o ",
"              . % 9 C _ :.7.s.M.Z.G.K.L.N.) m F P  .q.k.Y.).).).).(.^.c.w...' M j ( n.J.E.P.G.A.V.d.u.1.@.E a , #               ",
"                  < k H $.1.t.d.Z.Z.A.K.L.H.O.n s 5 e l e.).).).)./.x. .d w e j ) n.W.E.L.G.Z.Z.V.a.7.:.! C r X                 ",
"                  % 7 j ! ;.1.t.d.V.Z.G.H.H.N.O.[ / n l { x.x.x.x.l...L n m ) o.n.H.R.P.G.A.Z.M.s.7.:.@.C t < .                 ",
"                  . # 9 U | ;.1.u.d.Z.Z.A.G.P.E.W.!.r.z M ] ] ] ] ' m m X.n.E.W.W.I.K.G.Z.Z.V.s.7.:.@.! k , X                   ",
"      o o o o o     . , r c ;.:.1.t.d.M.Z.A.G.K.P.R.F.o.[ L L L L L ( { n.H.P.P.P.K.G.Z.V.d.s.7.1.;.U g 7 $ .         o o       ",
"    o @ o             X * t Q | ;.1.t.s.M.V.Z.Z.G.K.L.L.5.N / / / ( X.r.H.P.L.K.A.Z.Z.V.d.u.7.:.@.! c 5 $ .           o @ o     ",
"    o o o o           . X < r c | ;.1.7.u.d.M.V.A.G.G.G.m.5.5.5.5.5.y.M.G.K.G.A.Z.V.d.s.t.3.:.@.U g 7 * X           o o o o     ",
"o o o                     X * r C E @.-.3.7.a.d.V.V.V.Z.Z.Z.Z.Z.Z.Z.Z.Z.Z.Z.V.V.M.d.u.7.1.$.! H k 5 $ .                   o o o ",
"O o o             o o     . X > 7 j H _ -.1.1.7.u.a.d.d.M.V.V.Z.Z.Z.V.V.M.d.s.a.t.7.1.:.;.E V t 3 % .     o               o o O ",
"    o               o         . $ 7 a c J ! @.-.1.7.7.u.a.s.d.d.d.d.s.s.a.t.7.3.1.$._ E D k t < X .       o               o     ",
"                                . $ > 7 u c U @.;.-.:.1.1.1.1.1.1.1.1.1.1.:.:.-.;.! H j 0 3 * X                                 ",
"      o o o         @               . % 2 r a c C H U Q ! | @.$.$.@.@._ ! E U G V k u 7 > #               @         o o o       ",
"o o   @ @ @ o     o - o       o       . X $ > 5 r a k V G E ! @.@.| Q U C c j u 9 2 % # .               o - o     o @ @ @   o o ",
"o o o   o @ @ @ = - : o     o @             X % , 4 8 0 r u p a a a u t r 9 7 2 > #             + o     o : - @ @ @ @ o   o o o ",
"            o o     : ;       @ @               . X X X X X # # # # # X X X X . .             @ @       ; :     o o             ",
"          o o o     - - o   o o o o o                                                     o o o o o   o - -     o o +           ",
"          @ o o         o + + o   o     o @ @ o                                   o + o     o   o + + o         o o @           ",
"          o o o o         @ @ o o       o @ @ o           +                     o @ @ o       o o @ @         o o o o           ",
"            o             o o       o     o o o o o       @ @ o @ : @     o o o o o o     o       o o             o             "
};
