/* XPM */
static char *_3522aec710b4d5c866d1ffb4f904c5e[] = {
/* columns rows colors chars-per-pixel */
"64 64 194 2 ",
"   c #020203",
".  c #0B0303",
"X  c #050609",
"o  c #090609",
"O  c #06090B",
"+  c #0A0B0D",
"@  c #130203",
"#  c #1E0000",
"$  c #180404",
"%  c #1B0303",
"&  c #130708",
"*  c #130A0A",
"=  c #1E0A0A",
"-  c #0D0E12",
";  c #0A0E11",
":  c #120E11",
">  c #0F1114",
",  c #0D1114",
"<  c #141314",
"1  c #1A1313",
"2  c #15171B",
"3  c #13191C",
"4  c #1B1A1A",
"5  c #1E131A",
"6  c #230203",
"7  c #2C0303",
"8  c #2F0708",
"9  c #230A0A",
"0  c #2B0A0A",
"q  c #330000",
"w  c #330304",
"e  c #390000",
"r  c #3C0404",
"t  c #360708",
"y  c #3C0708",
"u  c #32090A",
"i  c #3A090A",
"p  c #310F14",
"a  c #231313",
"s  c #2E1313",
"d  c #2E161B",
"f  c #201919",
"g  c #291C1C",
"h  c #301515",
"j  c #3B1414",
"k  c #311E1E",
"l  c #3B1E1E",
"z  c #221D21",
"x  c #291924",
"c  c #222121",
"v  c #2C2225",
"b  c #2C2A2A",
"n  c #322525",
"m  c #34242E",
"M  c #332B2B",
"N  c #392C2D",
"B  c #3C2223",
"V  c #3B2633",
"C  c #3A2A36",
"Z  c #323232",
"A  c #3B3434",
"S  c gray23",
"D  c #430303",
"F  c #4A0101",
"G  c #4D0000",
"H  c #4A0001",
"J  c #450708",
"K  c #4B0708",
"L  c #450909",
"P  c #4D090A",
"I  c #530000",
"U  c #5D0001",
"Y  c #560608",
"T  c #5A0608",
"R  c #54080A",
"E  c #5D0A0B",
"W  c #5B090A",
"Q  c #4F191B",
"!  c #5E1515",
"~  c #5A1618",
"^  c #630000",
"/  c #6B0000",
"(  c #6B0000",
")  c #650708",
"_  c #630A0C",
"`  c #6B0B0C",
"'  c #720000",
"]  c #730101",
"[  c #7B0000",
"{  c #740B0D",
"}  c #7B0C0E",
"|  c #740F11",
" . c #7D0E11",
".. c #701618",
"X. c #761918",
"o. c #481E24",
"O. c #4D2727",
"+. c #43202B",
"@. c #402D2D",
"#. c #412424",
"$. c #502327",
"%. c #432732",
"&. c #452B3D",
"*. c #4B3636",
"=. c #473738",
"-. c #483339",
";. c #433B3D",
":. c #513B3C",
">. c #672728",
",. c #652322",
"<. c #7D2426",
"1. c #523045",
"2. c #5A3845",
"3. c #543349",
"4. c #464646",
"5. c #4F4646",
"6. c #4E4E4E",
"7. c #534141",
"8. c #525252",
"9. c #5C5A5A",
"0. c #5B5354",
"q. c #72455D",
"w. c #615C5C",
"e. c #6A5F5F",
"r. c #655454",
"t. c #755A5A",
"y. c #7F4C6B",
"u. c #626161",
"i. c #686767",
"p. c #696668",
"a. c #736D6D",
"s. c #747272",
"d. c #7C7A7A",
"f. c #7C7373",
"g. c #830000",
"h. c #880000",
"j. c #8A0101",
"k. c #8F0000",
"l. c #8C0000",
"z. c #830D0F",
"x. c #8B0C0E",
"c. c #910000",
"v. c #900000",
"b. c #930101",
"n. c #910001",
"m. c #990305",
"M. c #9B0405",
"N. c #930C0C",
"B. c #9B0D0F",
"V. c #870E10",
"C. c #8C0E10",
"Z. c #920F11",
"A. c #980F12",
"S. c #861010",
"D. c #8D1114",
"F. c #9D1012",
"G. c #A00607",
"H. c #A30709",
"J. c #A20708",
"K. c #A6090A",
"L. c #AF0C0E",
"P. c #AB0B0C",
"I. c #B10D0F",
"U. c #A20E11",
"Y. c #AB0F11",
"T. c #B50F11",
"R. c #B80F12",
"E. c #A31013",
"W. c #AB1114",
"Q. c #B31215",
"!. c #BD1215",
"~. c #BC1316",
"^. c #BD1215",
"/. c #C31417",
"(. c #C61418",
"). c #884D76",
"_. c #8D4F7B",
"`. c #846263",
"'. c #896667",
"]. c #857373",
"[. c #887B7B",
"{. c #848484",
"}. c #8D8C8C",
"|. c #949393",
" X c #989797",
".X c #9C9C9C",
"XX c #A5A4A4",
"oX c #AAAAAA",
"OX c #BBBBBB",
"+X c #C5C5C5",
"@X c #DDDDDD",
"#X c #D2D2D2",
"$X c #EFEFEF",
"%X c #F3F3F3",
/* pixels */
"            X             X X             X X X X X X     + + X + 2 +     X       X X             X X             X             ",
"          X X X X         + + X         X + + X         X ; X X     O X         O + + X         X + +         X X X X           ",
"          + X X         X O O           X O X X         O + X X       O X       O + + O           O O X         X X +           ",
"          X X X     - - X   X X X X X             X X                     X       X X     X X X X X   X , ,     X X O           ",
"            X X     O +       + +                   X   X X X X           O                   + +       - <     X X             ",
"X X X   X + + + + O X       X + X       X     +                 X     X X     . o             X + X       X + + + + + X   X X X ",
"X X   + + + X       X         X X           O , X             X + X o X     . $ $ .           X O         X       X + + +   X X ",
"      X X X                   X X X         + ;                     . . . @ 6 w 7 $ .         X X         X         X X X       ",
"                              X X X         X X         + o       @ 6 7 7 e F I G e % .                                         ",
"                    X X       X X o X     X X           o & . . @ 7 F ^ ' g.j.j.j.' F %         X       X X                     ",
"o X X             X +             o X     X X       . . $ t K E ) { g.g.j.n.n.n.n.g.' w .   X             + X             X X o ",
"X X X               X             X       o X   o . 6 7 y _ z.E.P.L.L.H.m.m.n.n.n.n.k.G %   X             X               X X X ",
"          X         X     X       X       o o . $ 7 E z.F.W.Q.^.^.^.^.!.I.H.m.n.n.n.n./ D . o X     X     X         X   X       ",
"    X o X     X     X + ,         X       . % y R { Z.W././././././././.~.I.H.n.n.n.n.g.U $ o X       , + X X   X     X o X     ",
"      X X X X X X   X + ,             . @ % y { E.^././././././././././././.P.m.n.n.n.k.( 7 @ X       , + X X X X X X X X       ",
"              X X   X   O       X     % t ` Z.W.~./././././././././././././.!.P.m.n.n.n.[ G 6 X       O X       X               ",
"                  X               . 8 P { E.^././././././././././././././././.!.H.m.n.n.g./ w           X                       ",
"                  X     O       . 6 _ A.^./././././././././././././././././././.P.M.n.n.k.g.D .       X +                       ",
"                              . J { F.Q./././././././././././././././.^.^././.^.T.K.n.n.k.j.I 6 @     O   X                     ",
"                    O X X   @ y } Q./././././.^.W.F.E.Q./././././././.W.U.Y.Q.^.^.L.m.n.n.n./ e $ .       X                   X ",
"                    X X O & y Z.W./././././.^.Q.` J W Z./././././././.x.) { B./.^.T.P.M.n.n.[ I % .                           X ",
"o                   O o . L } Q.^././././.~.F.` y 6 y z./././././.^.Q.` w r { !.~.^.T.H.n.n.g./ 6 .                           o ",
"                    X * 6 } Q./././././.^.E.` 6 $ % 8 } /././././.Q.Z.K @ @ Y Y.Q.^./.P.M.n.k.[ w @                             ",
"        X           . 8 _ F.^././././.^.W._ 8 * 1 g i z./././././.E.W t 6 $ K z.Y.^.^.T.K.n.n.g.I 7 .     X           X         ",
"X X O + , O       X @ J A.Q././././.^.F.` u n u.=.j L z././././.~.C.t #.*.n j T B.!.^.^.I.m.n.j./ e @ .               + + O     ",
"X X O + ; X X     o 6 _ /././././.^.W.` % 1 9.@X`.J P C././././.W.{ $ 0.{.8.n 7 x.T.^.^.T.m.n.k.g.G . o X   O         O + O X   ",
"      + 3 + + X X @ P C././././.^.W._ t 1 a.OX%X'.J R C./././.^.} K 6 [.+X|.5.6 } Y.!.^.T.M.m.k.j.U 6 $ .             O O       ",
"      X , + ; X X % { E././././.E.} t a Z d.OX$X`.J R C././.^.Q.E 8 h a.oXXXw.6 { U.~.~.T.K.M.n.n.( D 6 .             X X       ",
"  X + , X   O   o 6 C.~./././.~.{ 7 6 @.u.S u.#Xt.y W Z././.Q.E.J a A c Z  Xe.6 _ Z./.^.^.T.H.n.n.g.' 7 . X     X , X   , + X   ",
"  X   O O       @ y Z./././.~.E.W = N A b 4 ;. X7.t _ A./.~.A._ t = f + < 9.:.y R z././.^.!.K.m.n.k.g.G 6 .     X O +       X X ",
"        + +     6 R E./././.~.F.R 9 A b o . g 9.n t { E.~.F.` 7 0 % .   o b l J J { /././.^.I.H.m.n.k.( F @ .     X +           ",
"        + ,   o y } W./././.^.Q.{ t 9 * . @ $ a = y Z.Q.W.R 6 . 1 < o   X 4 s J J { /./././.^.I.m.k.k.j./ w @ o     ; X         ",
"        X + + . K Z.Q./././././.F.} _ R K K K P E } W.~.Q.{ K t 0 = . . o * = t W C./././././.R.G.m.n.n.[ ^ 7 . + + + X         ",
"        X + + . R E.~./././././././.Q.E.C.C.C.Z.W.^././.^.W.C.` K t 6 % % % 6 t } E./././././.^.P.M.n.n.k.k.F @ o + O X         ",
"      X X o o @ E Q.^./././././././.^.~.Q.Q.Q.Q.^././././.^.Q.W.E.A.C.z.} { } C.W.~././././././.!.K.n.n.n.k.^ w @ X X X X       ",
"        X   o $ ` ^./././.^.Q.Q.Q.Q.Q.Q.Q.Q.Q.Q.~.~.~.^.^./././././.^.Q.W.W.Q.~./././././././././.P.m.n.k.n.' F @     X         ",
"            . 8 { /./././.Q.F.Z.C.C.Z.Z.Z.Z.A.F.E.E.W.W.Q.~.^././././././././././././././././././.I.m.n.n.n.[ I @ X             ",
"      + 3 + = J z././././.} P y y y y y y y y J J J J K K P R R R E _ { C.Q./././././././././././.T.K.m.n.n.[ I @ O + 3 +       ",
"O O O + ; o 9 R Z././././._ 6 $ g A A A N M v * & * g n n n n n k s 8 y _ W./././././././././././.^.I.M.n.n.[ I @ X X + + O O O ",
"X X O + , o 6 _ F././././.` t 8 r..XXX.X X}.i.b < 4 w.s.d.d.s.a.9.;.9 6 J E./././././././././././.^.T.M.n.n.[ I @ X X - + O X X ",
"        X   6 { E././././.Z.W % M 6.8.6.6.4.Z < 4 Z s.{.{.{.{.{.6.v $ J { Q./././././././././././.T.K.m.n.n.' F @     X         ",
"            6 { E././././.Q.} %     X X X X o o z ;.p.s.s.f.].].*.s t { W.^././././././././././.!.P.M.m.n.n./ e @               ",
"o           6 } E././././.^.Z.y $ X o o o : 5 x m C C M n O.>.<...| C.W.^././././././././././.~.P.M.n.n.n.n.I 6 .             o ",
"            6 } W./././././.W.{ y * 5 n &.1.3.1.&.V x p L | D.F.F.E.Q.^././././././././././.!.I.G.m.n.n.k.j.F @               X ",
"            6 } W./././././.^.W.` u B 2.y._.).q.3.V d P } T./.(./././././././././././././.^.I.K.m.n.n.n.j.[ e .               X ",
"            6 } W././././././.~.F. .! Q o.+.%.-.$.~ _ z.W.^././././././././././././././.^.T.K.m.n.n.n.n.[ I 7 .                 ",
"            6 { E./././././././.~.W.C.{ _ E ! ,.X.S.N.W.^././././././././././././././.^.T.K.M.n.n.n.k.j./ w $ .                 ",
"            6 { E././././././././././././././.~.^.^./././././././././././././././././.!.P.m.n.n.n.n.k.g.I @ .                   ",
"          . 6 R C./././././././././././././././././././././././././././././././.^.!.I.K.M.n.n.n.n.k.g.I 7     X X               ",
"      X X . % t { ^././././././././.^.^./././././././././././././././././.^.!.T.T.P.H.m.n.n.n.k.j.[ U 7 . X X X X X X X X       ",
"    X o X   . $ _ Q.^././././././././.^.~.^./././././././././././././.^.!.T.P.H.M.m.n.n.k.n.n.j.[ F % * O X X         X o X     ",
"      X   X   . J C.Q./././././././././.^./././././././././././.^.!.I.P.K.H.M.m.m.n.n.n.j.g./ I e 6 .     X         X   X       ",
"X X X           6 R E././././././././././././././.^./././.^.^.R.I.P.G.M.m.n.n.n.n.k.j.g.[ / e % .         X               X X X ",
"o X X           @ 7 V.Q././././././././././././.^.^.^.!.T.L.K.G.M.m.m.n.n.n.n.n.k.g.( F w 6 % @ .         + X             X X o ",
"                  % W Z././././.^.^.!.R.T.T.I.I.L.P.P.K.H.M.m.m.n.n.n.n.k.g.[ ' ^ I e 6 @ . . o X       X o                     ",
"                  . 6 E Q.~.^.!.T.I.P.K.H.G.M.M.m.m.n.n.n.n.n.k.k.k.j.j.g.' U F 6 @ .       X X         X                       ",
"        X X         & t ` N.K.H.G.M.M.m.m.m.m.n.n.n.n.n.n.k.g.[ [ / I F w 7 7 6 & .         X X X         +         X X X       ",
"X X   + + + X     X + % w U [ j.k.n.n.n.n.k.j.g.g.g.[ [ ( / U I F D w 6 @ . . & : o           X X       X , X     X + + +   X X ",
"X X X   X + + + + , 2 o @ 6 e ' g.k.n.k.k.g.g.[ ( / U F w % @ . @ @ 6 $ & & . + - X   X       X + X     X 3 , + + + + X     X X ",
"            X X     2 :   @ 6 w e F F F D e e w w w 7 6 @ & . & o . . . o o                   + +       < 2     X X             ",
"          X X X     , , X . . . . . @ @ . . . . . . . . X o . o X       X                 X X X X X   X , ,     X X O           ",
"          + X X         X o o       . . o o o o X X     + + X O       O O         + + X           O O X         X X +           ",
"          X X X X         + + X         X + + o X         + O X   + + X         X + + X         X + o         X X X X           ",
"            X             X X             X X X X X       + + X + 3 +     X X X X X X             X X             X             "
};
