/* XPM */
static char *b10968173add444284a32af93d5ad5ba[] = {
/* columns rows colors chars-per-pixel */
"64 64 179 2 ",
"   c #020203",
".  c #0B0303",
"X  c #050609",
"o  c #090709",
"O  c #06090B",
"+  c #0A0B0D",
"@  c #130203",
"#  c #1B0203",
"$  c #120709",
"%  c #120B0C",
"&  c #1B0C0D",
"*  c #16100F",
"=  c #0B0E11",
"-  c #140C10",
";  c #0D1114",
":  c #121213",
">  c #1B1313",
",  c #14191C",
"<  c #1C1C1C",
"1  c #230304",
"2  c #2A0101",
"3  c #2C0303",
"4  c #230708",
"5  c #260D0D",
"6  c #2C0C0C",
"7  c #360000",
"8  c #330203",
"9  c #3C0303",
"0  c #340708",
"q  c #3A0708",
"w  c #3A0A0A",
"e  c #221213",
"r  c #24151B",
"t  c #2C1B1B",
"y  c #221D1D",
"u  c #341313",
"i  c #331718",
"p  c #331C1C",
"a  c #291821",
"s  c #3D1920",
"d  c #381F2A",
"f  c #202020",
"g  c #2A2525",
"h  c #2E2729",
"j  c #2B2929",
"k  c #352028",
"l  c #352A2A",
"z  c #382529",
"x  c #3C2332",
"c  c #3C3131",
"v  c #3C3C3C",
"b  c #353434",
"n  c #440303",
"m  c #4C0101",
"M  c #440708",
"N  c #4B0708",
"B  c #410B0C",
"V  c #4D090A",
"C  c #540101",
"Z  c #5C0000",
"A  c #53090A",
"S  c #5B090A",
"D  c #421415",
"F  c #521112",
"G  c #620000",
"H  c #640000",
"J  c #6E0000",
"K  c #6C0000",
"L  c #610709",
"P  c #6D0709",
"I  c #630A0B",
"U  c #6B0B0C",
"Y  c #750001",
"T  c #7C0000",
"R  c #740B0D",
"E  c #7B0C0E",
"W  c #6B0D10",
"Q  c #601B1D",
"!  c #551C20",
"~  c #442425",
"^  c #40242A",
"/  c #43282B",
"(  c #4A2B2D",
")  c #532625",
"_  c #462937",
"`  c #4D2D3D",
"'  c #502E3F",
"]  c #443C3C",
"[  c #4C3C3C",
"{  c #5C3647",
"}  c #5E384A",
"|  c #5F3550",
" . c #673A53",
".. c #6E3E5D",
"X. c #444242",
"o. c #4C4343",
"O. c #4D4B4B",
"+. c #564E4F",
"@. c #5D4C4C",
"#. c #555353",
"$. c #5C5556",
"%. c gray35",
"&. c #654147",
"*. c #6F474F",
"=. c #624C4C",
"-. c #6F425A",
";. c #6D5051",
":. c #64585C",
">. c #7B5E5E",
",. c #744163",
"<. c #696363",
"1. c #6E6C6C",
"2. c gray39",
"3. c #756D6D",
"4. c #767575",
"5. c #787373",
"6. c #7C7C7C",
"7. c #860101",
"8. c #850000",
"9. c #8F0000",
"0. c #8D0000",
"q. c #840D0F",
"w. c #8B0C0E",
"e. c #910000",
"r. c #900000",
"t. c #920102",
"y. c #920101",
"u. c #9C0505",
"i. c #930B0D",
"p. c #9C0A0C",
"a. c #860E10",
"s. c #8C0E10",
"d. c #930F11",
"f. c #9B0F11",
"g. c #821414",
"h. c #881113",
"j. c #81181A",
"k. c #8D1819",
"l. c #901012",
"z. c #9E1012",
"x. c #991B1C",
"c. c #A00607",
"v. c #A20708",
"b. c #A5090A",
"n. c #AC0B0C",
"m. c #B10D0F",
"M. c #A50F11",
"N. c #B70F11",
"B. c #B40E11",
"V. c #B90F12",
"C. c #A21013",
"Z. c #A41113",
"A. c #AB1114",
"S. c #B41215",
"D. c #BC1215",
"F. c #C31417",
"G. c #C21417",
"H. c #8C4E79",
"J. c #8A5170",
"K. c #8E5278",
"L. c #876464",
"P. c #8B696A",
"I. c #9D5987",
"U. c #9D5888",
"Y. c #A45B8F",
"T. c #A9618F",
"R. c #B6659F",
"E. c #CB71B1",
"W. c #D074B4",
"Q. c #848484",
"!. c #898989",
"~. c #998A8A",
"^. c gray57",
"/. c gray61",
"(. c #ACACAC",
"). c #B1B1B1",
"_. c #DEDEDE",
"`. c #E7E7E7",
"'. c gray99",
/* pixels */
"            X             X X             X X X X X X     + + X + , +     X       X X             X X             X             ",
"          X X X X         + + X         X + + X         X = X X     X X         O + + X         X + +         X X X X           ",
"          + X X         X O O           X O X X         O + X X       O X       O + + O           O O X         X X +           ",
"          X X X     = = X   X X X X X             X X                     X       X X     X X X X X   X ; ;     X X O           ",
"            X X     O +       + +                   X   X X X X           X . @ . .           + +       = :     X X             ",
"X X X   X + + + + O X       X + X       X     +                 X   . . . . # 2 1 @           X + X       X + + + + + X   X X X ",
"X X   + + + X       X         X X           O ; X             X o . @ @ @ # 3 9 7 1 .         X O         X       X + + +   X X ",
"      X X X                   X X X         + =         X . . . @ # 9 m C G K Y K Z 7 @       X X         X         X X X       ",
"                              X X X         X X       . $ 1 3 0 q V K Y 8.9.r.r.r.T G 2 .                                       ",
"                    X X       X X o X     X X     X . @ 1 N U w.p.p.v.u.r.r.r.r.r.9.8.n @       X       X X                     ",
"o X X             X +             o X     + o . @ 1 M S R s.C.S.S.N.N.n.b.u.t.r.r.r.9.Z 7 .               + X               X o ",
"X X X               X             X       o $ 1 8 N E C.D.F.F.F.G.G.F.D.D.n.u.r.r.r.r.T C @ .             X               X X X ",
"          X         X     X       X   . . @ 3 S q.Z.S.D.F.F.F.F.F.F.F.G.D.D.b.r.r.r.r.0.K # . X     X     X         X   X       ",
"    X o X     X     X + ;         X   @ 3 N U d.A.F.F.F.F.F.F.F.F.F.F.F.G.G.N.v.t.r.r.9.Y 9 # .       ; + X X   X     X o X     ",
"      X X X X X X   X + ;         . @ 3 A d.D.F.F.F.F.F.F.F.F.F.G.G.F.F.F.F.G.V.u.r.r.r.8.G 7 . X     ; O X X X X X X X X       ",
"              X X   X   O       . # V E f.S.F.F.F.F.F.F.F.F.F.F.F.F.G.F.F.F.F.D.b.u.r.r.0.Y 9 .       O X       X               ",
"                  X           . 1 A a.A.G.F.F.F.F.F.F.F.F.F.F.F.F.F.G.G.D.G.G.D.m.c.r.r.9.8.m @ .       X                       ",
"                  X     O     @ I Z.D.F.F.F.F.F.G.G.G.F.F.F.F.F.F.F.G.D.D.D.G.D.D.n.r.r.r.r.Z 3 # .   X +                       ",
"                          . 3 U f.D.F.F.F.F.F.D.q.U E C.F.F.F.F.F.F.F.f.E w.M.D.D.N.v.t.r.r.Y m #     O   X                     ",
"                    O O . 3 S A.D.F.F.F.F.D.A.d.V 3 M a.F.F.F.F.F.F.D.R M A q.D.D.D.B.u.r.r.8.G 1 . X     X                   X ",
"                    X o @ U C.D.F.F.F.F.F.S.q.0 1 # 3 E F.F.F.F.F.D.A.A @ # L B.D.D.D.b.t.r.9.Y 2 . X                         X ",
"o                   o 4 N s.D.F.F.F.F.D.S.E N $ & e 0 E F.F.F.F.F.A.R q # @ V i.S.D.G.m.v.r.9.T m 1 .                         o ",
"                    . q q.A.F.F.F.F.F.A.d.M e j g p B q.F.F.F.F.F.d.q u i 5 B P M.D.D.D.n.t.r.8.G 9 @                           ",
"        X         X # A S.D.F.F.F.F.S.q.q & X.(.;.B V s.F.F.F.F.S.E 1 o.<.] p q i.D.D.G.B.t.r.0.T m . . X X           X         ",
"X X O + ; O       . q E G.F.F.F.F.S.q.V & O.^.`.L.M A s.F.F.F.F.d.S 1 3.(.4.] 3 q.B.D.D.N.u.r.9.8.C # @ .             + + O     ",
"X X O + = X X     # I z.F.F.F.F.S.d.q $ < /.`.'.P.M A s.F.F.F.D.I 0 3 ~._.(.$.# R M.D.D.B.v.t.r.r.H 3 1 @   O         O + O X   ",
"      + , + + X . # E S.F.F.F.D.q.V 3 k O.%.!._.>.q A s.F.F.D.A.N 5 l X.2./.:.1 U f.D.D.D.n.u.r.r.T Z 2 . X           O O       ",
"      X ; + = X $ 3 d.D.F.F.D.A.I 1 i c o.g O.).=.q S d.F.D.Z.E q & j : < 4.@.3 S w.G.G.D.D.b.t.r.0.T 9 # .           X X       ",
"  X + ; X   O   # N z.F.F.F.S.d.N & X.b o . l 4.c 3 U z.F.S.q.q 8 1 .   + b ~ M N E F.G.D.D.n.u.r.r.0.G 7 .     X ; X   ; + X   ",
"X X   O O       8 U A.F.F.F.D.A.U 6 t > . @ e c e 0 a.A.S.R M # & & .   o f i M M R F.F.G.G.N.n.t.r.9.T Z 2 @   X O +       X X ",
"        + +   . M s.S.F.F.F.F.D.s.S q 3 3 3 3 3 0 S Z.S.A.S 3 @ > > .   . : 5 q N E F.F.F.G.D.N.u.r.r.9.Y m 1 .   X +           ",
"        + ; X . V z.S.F.F.F.F.F.D.A.f.q.R R R E d.A.D.F.D.f.R A w 1 . . . . @ 1 U f.F.F.F.F.G.D.b.u.r.r.0.T 9 @     = X         ",
"        X + + $ S A.D.F.F.F.F.F.F.F.D.A.Z.C.Z.Z.S.D.F.F.F.S.C.s.E U I S A A S U d.S.F.F.F.F.F.D.B.v.r.r.r.9.Z 3 $ O + X         ",
"        X + o @ I D.F.F.F.F.D.D.D.D.D.D.D.D.D.D.F.F.F.F.F.F.F.F.F.G.D.A.C.z.Z.S.D.F.F.F.F.F.F.F.D.n.r.r.r.r.K m @ o O X         ",
"      X X X . 1 U F.F.F.F.S.A.z.f.z.z.C.C.C.Z.A.A.S.S.S.D.D.F.F.F.F.F.D.D.D.D.D.F.F.F.F.F.F.F.F.F.n.t.r.r.r.Y m @   X X X       ",
"        X   @ q E F.F.F.F.d.R I S S I I I I I U U U R R E E E q.q.a.s.d.Z.D.F.F.F.F.F.F.F.F.F.F.F.N.v.t.r.r.T C @     X         ",
"          . 1 V s.F.F.F.G.I 1 @ @ $ $ $ @ $ . . . . @ @ @ @ @ # # 1 3 N R S.G.F.F.F.F.F.F.F.F.F.F.D.m.u.r.r.T C @ X             ",
"      + , + 4 I d.F.F.F.F.U 3 1 [ 3.5.5.1.<.O.y % > o.#.$.$.$.+.o.z 1 3 N A.G.F.F.F.F.F.F.F.F.F.F.D.N.u.r.r.T C @ o + , +       ",
"O O O + = . 4 U z.F.F.F.F.q.N 1 o.6.6.6.4.1.#.f > j 1.Q.Q.Q.Q.6.%.c # 8 S A.F.F.F.F.F.F.F.F.F.F.F.D.m.u.r.r.Y m @ . X = + O O O ",
"X X O + ; . 1 R Z.F.F.F.F.Z.R @ o + : : : * o X < X.4.Q.!.!.!.Q.X.> @ S z.D.F.F.F.F.F.F.F.F.F.F.D.m.c.t.r.r.K m @ . X ; + O X X ",
"        X   1 R Z.F.F.F.F.D.s.3 @   X X X O X X : f v v X.o.+.:.h 6 S d.S.F.F.F.F.F.F.F.F.F.G.D.m.b.t.r.r.r.Z 7 .     X         ",
"            1 E A.F.F.F.F.F.Z.S 3 . o o o + + o o o . o - a x _ r B z.S.F.F.F.F.F.F.F.F.F.F.D.N.b.u.r.r.9.9.m #                 ",
"o           1 E A.F.F.F.F.F.D.C.I 1 . o : : + o % & % r x ,.,.` ^ Q S.F.F.F.F.F.F.F.F.F.F.G.N.b.u.r.r.r.9.8.9 .               o ",
"            1 E A.F.F.F.F.F.F.D.d.I # o + > > * k ' | ,.H.I.,.d ! j.D.F.F.F.F.F.F.F.F.F.G.D.n.u.t.r.r.r.8.H 7 .               X ",
"            1 R Z.F.F.F.F.F.F.F.D.C.0 . . e t t } K.R.E.W.T. .& W C.F.F.F.F.F.F.F.F.F.G.D.n.u.r.r.r.r.9.Y n 1 .               X ",
"            1 R C.F.F.F.F.F.F.F.F.S.a.V & e / *.J.U.Y.K.-.` s B s.D.F.F.F.F.F.F.F.F.F.D.m.u.t.r.r.r.9.8.Z # .                   ",
"          . 1 S d.F.F.F.F.F.F.F.F.D.S.h.F D ~ &.-.,...{ ( D S E A.F.F.F.F.F.F.F.G.D.D.n.v.t.r.r.r.9.8.H 9 .                     ",
"          . 1 M q.F.F.F.F.F.F.F.F.F.D.D.A.U w e > > > p ) g.Z.G.F.F.F.F.F.F.F.G.D.B.b.u.r.r.r.r.r.0.T 7 @                       ",
"            @ 1 U D.F.F.F.F.F.F.F.F.F.D.S.z.l.g.g.g.g.k.x.A.D.F.F.F.G.G.D.D.m.n.b.u.u.t.r.r.r.9.T Z 9 #       X X               ",
"      X X X . $ A z.D.F.F.F.F.F.F.F.F.F.D.F.F.G.F.D.F.F.F.F.F.G.G.D.D.N.m.b.v.u.t.r.r.r.9.0.T K C 7 . o   X X X X X X X X       ",
"    X o X     . 0 U A.F.F.F.F.F.F.F.F.F.F.F.F.F.F.F.G.F.F.F.G.D.D.m.b.c.u.t.t.r.r.r.r.9.0.T C 3 # . X ; O X X         X o X     ",
"      X   X     # q d.D.F.F.F.F.F.F.F.F.G.G.G.G.D.D.D.D.D.N.m.b.b.c.u.t.r.r.r.r.9.8.T G m 9 2 # .   X     X         X   X       ",
"X X X             # R Z.F.F.G.F.G.G.G.D.D.D.D.D.D.N.N.m.n.b.u.t.r.r.r.r.9.9.0.8.T K C 3 @ . . .           X               X X X ",
"o X X           . @ q R D.G.D.D.D.N.B.n.n.b.b.v.u.u.u.u.t.t.r.r.r.r.r.9.0.T K C 9 2 # @ . X o             + X             X X o ",
"                  . # M w.b.m.n.b.b.v.u.u.u.u.t.t.r.r.r.r.9.0.8.T Y K G C m 9 7 # @ .     X o X X       X o                     ",
"                    . # M Y t.t.t.r.r.r.r.r.9.9.9.9.9.0.0.8.T Y G C 9 1 @ . @ @ . o         X X         X                       ",
"        X X         o . # 9 Z T 0.r.r.r.9.0.8.T T Y K Z m 9 7 3 2 2 2 # $ $ o o = +         X X X         +         X X X       ",
"X X   + + + X     X ; X . # 3 m Z H H H H Z Z C m m n 7 1 @ . . . @ # @ . . o ; : O           X X       X ; X     X + + +   X X ",
"X X X   X + + + + ; , X   . @ @ @ @ # @ @ @ @ . . @ @ . . . . o o X           + = X   X       X + X     X , ; + + + + X     X X ",
"            X X     , :     . o o . . . . . .       .   X X o + X                             + +       : ,     X X             ",
"          X X X     ; ; X   X X X X X     X . X       X X               X                 X X X X X   X ; ;     X X O           ",
"          + X X         X O O       X   X + + O         + + X X       O X         + + X           O O X         X X +           ",
"          X X X X         + + X         X + + X           + O X   + + X         X + + X         X + o         X X X X           ",
"            X             X X             X X X X X       + + X + , +     X X X X X X             X X             X             "
};
