/* XPM */
static char *_306da9b282d438f8efc47c1bc72f413AHciYHkM4iTnBYTb[] = {
/* columns rows colors chars-per-pixel */
"64 64 126 2 ",
"   c #020204",
".  c #050609",
"X  c #08070A",
"o  c #06090B",
"O  c #0A0B0D",
"+  c #0F0F12",
"@  c #0E0F13",
"#  c #0D0D10",
"$  c #0C0E11",
"%  c #100F10",
"&  c #100F12",
"*  c #110F12",
"=  c #100E11",
"-  c #0C1012",
";  c #0E1014",
":  c #0F1114",
">  c #0E1314",
",  c #0D1113",
"<  c #101011",
"1  c #111112",
"2  c #111013",
"3  c #121113",
"4  c #131313",
"5  c #121114",
"6  c #101214",
"7  c #121214",
"8  c #131315",
"9  c #151316",
"0  c gray8",
"q  c #151515",
"w  c #141416",
"e  c #161617",
"r  c #131314",
"t  c #161518",
"y  c #171718",
"u  c #151618",
"i  c #18161A",
"p  c #18171A",
"a  c #181719",
"s  c #141B1B",
"d  c #15191B",
"f  c #181818",
"g  c #191919",
"h  c #1A181B",
"j  c gray10",
"k  c #1A191C",
"l  c #1B1B1C",
"z  c #1B1C1D",
"x  c #1E1E1E",
"c  c #1D1D1D",
"v  c #1F1D21",
"b  c #1F1E21",
"n  c #1E1F20",
"m  c #201F21",
"M  c #1E2021",
"N  c #212022",
"B  c #222124",
"V  c gray14",
"C  c #252427",
"Z  c #232424",
"A  c #262728",
"S  c #282729",
"D  c #272829",
"F  c #2B292B",
"G  c #2A2A2A",
"H  c gray17",
"J  c #2B292C",
"K  c #2B2B2C",
"L  c #2D2D2D",
"P  c #2C2C2C",
"I  c #2F2F30",
"U  c #2E3031",
"Y  c gray19",
"T  c #313131",
"R  c #323032",
"E  c #323232",
"W  c #363637",
"Q  c #333334",
"!  c #373738",
"~  c #383739",
"^  c #373838",
"/  c #373839",
"(  c gray22",
")  c #3B3A3C",
"_  c #3C3C3C",
"`  c gray24",
"'  c #3D3D3E",
"]  c #3E3E3E",
"[  c #3F3F3F",
"{  c #3C3C3C",
"}  c #3F3F40",
"|  c #403F40",
" . c #3F4040",
".. c #414141",
"X. c #444444",
"o. c #474648",
"O. c #474748",
"+. c #4B4B4B",
"@. c #4C4C4C",
"#. c #4B4B4B",
"$. c #4F4F50",
"%. c #504F50",
"&. c #535353",
"*. c #565656",
"=. c #535353",
"-. c #585758",
";. c gray35",
":. c #5B5B5B",
">. c #5F5F5F",
",. c #5C5C5C",
"<. c #5F5F60",
"1. c #605F60",
"2. c #606060",
"3. c gray38",
"4. c #626262",
"5. c #636363",
"6. c #6A6A6A",
"7. c #6D6D6D",
"8. c #6B6B6B",
"9. c gray44",
"0. c #727272",
"q. c gray46",
"w. c #747474",
"e. c #767676",
"r. c #777777",
"t. c gray47",
/* pixels */
"            .             . .             . . . . . .     O o . O d O     .       . .             . .             .             ",
"          . . . .         O O .         . O O .         . O . .     o .         . O O .         . O O         . . . .           ",
"          O . .         . o o           . o . .         o o . .       o .       o O O o           o o .         . . O           ",
"          . . .     $ $ .   . . . . .             . .                     .       . .     . . . . .   . > >     . . o           ",
"            . .     o O       O O                   .   . . . .           o                   O O       $ 7     . .             ",
". . .   . O O O O o .       . O .       .     O                 .     . . .     .             . O .       . O O O O O .   . . . ",
". .   O O O .       .         . .           o , .             . O . X .         .             . o         .       . O O O   . . ",
"      . . .                   . . .         o $                     . .         o .           . .         .         . . .       ",
"                              . . .         . .       . $ O . . .   X .           .             .                               ",
"                    . .       . . X .     . .   . X O O 7 7 O O O O O X . .       .             .       . .                     ",
"X . .             . O             X .     O $ $ 7 e y g l z g g y < < O X O X . . X .       .             O .               . X ",
"  . .               .             .   X O i l n C H E ( _ _ _ _ ^ E H C l e $ O O O $ X .   .             .               . . . ",
"      .   .         .     .     . O O i n H E ) o.$.*.;.>.2.2.>.;.&.+...W J B g < * < * O . O .     .     .             .       ",
"    . X .     .     . o >       X y B J E _ %.1.7.e.t.e.e.e.e.e.9.9.6.2.;.@._ L c g e e 9 * < X       , O . .   .     . X .     ",
"      . . . . . .   . o ,     < c H L _ +.*.-.*.*.*.*.&.&.*.*.;.>.2.5.6.7.5.;.@.( H B l g e 9 , o     , O . . . . . . . .       ",
"              . .   .   o . < n H I ( ..O.+.+.+.O.O.O.O.O.O.+.+.@.&.*.;.>.5.5.2.*...W C B c g e $ .   o .       .               ",
"                  .     o O g V K Q _ ...._ ......O.O.O.O.O.O.O.O.O.O.+.@.*.2.5.6.;.+.W H C M g r O .   .                       ",
"                  .   . r z M C L ( ( _ ..O.+.+.+.@.@.@.@.@.@.@.@.+.+.O.O.O.#.*.5.6.2.@.W H C B g e O X $                       ",
"                    . , d g B L W _ ..O.+.@.@.&.&.@.+.+.O.O.O.O.+.+.+.+.+.+.+.+.@.;.5.2.@.( L H C g r r O .                     ",
"                    $ u z c H ( ..O.+.@.@.&.@.+.O.O.O.O.O.O.O.O.O.O.O.O.O.+.+.+.O.@.;.2.2.+.W H H V c e , X                   . ",
"                  . 7 d M C ( ..+.@.@.&.&.@.+.X...O.O.+.@.@.@.@.+.O.O.....O.O.+.+.+.@.;.5.;.O.E L H V d 4 O                   . ",
"X                 X z n V W ..+.@.&.*.&.+._ _ O.&.>.2.5.5.2.2.2.2.2.>.&.O.( _ ..@.+.+.@.>.5.;._ L Y H c e < X                 X ",
"                . < g V I ..+.@.&.&.@.O...O.&.;.>.>.;.;.;.;.,.,.>.;.;.>.;.*.O._ _ +.+.+.&.2.>.@.W E L C g e O                   ",
"        .       O g n J ( O.@.&.&.@.O.O.+.;.>.>.;.;.;.>.>.>.>.>.>.>.>.>.>.>.*.+.{ ..O.+.+.;.2.;._ E L L c g < o       .         ",
". . o O > o   . O c c E ..+.&.&.@.O...@.>.5.>.*.*.;.>.2.>.;.;.;.;.>.>.>.;.>.2.;.X._ ..+.O.@.>.2.+.( E E C g e O .     O O o     ",
". . o O $ . . O r c D ( +.@.*.@.O._ @.>.5.*.&.;.5.6.;.+._ W E E W _ &.>.5.>.;.>.>..._ ..O.+.*.2.*._ E E H c g e o .   o O o .   ",
"      O s O O , d z U  .@.&.&.+...+.>.2.;.@.;.2.>.+.( E H C C C C C L _ &.2.2.>.>.&...( O.O.&.>.>.O.W E E B g g O .   o o       ",
"      . - O - > g c W O.@.*.@...O.*.2.;.&.*.2.;.O.E C B c c c c c c c C E &.>.2.>.;.+.( ..O.@.;.2.+.( E E C z z r X   . .       ",
"  . O > .   O < z B _ +.&.&.O...@.5.2.*.&.5.>.O.L Z B c c c c c c c c g g W &.2.;.>.@._ _ O.@.*.2.@.( E E C c z s d .   - O .   ",
"  .   o o . X < g D ..@.&.@...+.*.6.;.&.;.6.@.W C B c c c c c c c c c c g c ( *.>.>.&...( ..+.&.2.&._ E L H B c z > O       . . ",
"        O $ O 4 c H O.@.&.+...@.>.5.&.*.>.2...H B c c c c c c c c c c c c g L O.>.>.*.O.W ..+.&.2.&._ E L H C c d - O           ",
"        O > - r M I +.&.@.O...&.2.>.@.*.2.*.W C c c c c c c c c c c c c c g B W *.;.*.O.W _ +.&.2.&._ E L L H B z - $ .         ",
"        . O r d V Q @.&.@.....*.5.;.@.;.2.+.E B c c c c c c c c c c c c c c c L @.;.*.O.W _ +.&.2.&._ E L L H A V r o .         ",
"        . O 7 e M E @.&.+...O.;.5.*.@.;.2...L C c c c c c c c c c c c c c c c H O.;.&...W _ +.*.2.@._ E L L L C B e o .         ",
"      . . . O < n E @.&.+...O.;.5.*.@.;.2...E C c c c c c c c c c c c c c c c H +.;.@.( W ..@.;.2.@.( L L E I C c , . . .       ",
"        .   O < B E +.@.+...O.;.5.&.@.;.2.O.E C B c c c c c c c c c c c c c c L &.;.+.W ( ..@.>.>.O.W L L W E A l O   .         ",
"            O e n L +.@.+...O.;.5.*.+.;.2.@.W H B c c c c c c c c m c c c g C ( >.*...E ..O.&.2.*...E L E ! E C l $             ",
"      O s $ , d M H ..+.+._ ..*.5.;.O.&.2.;._ L D B c c c c c c c c c c g c W @.>...W ( ..@.;.>.+.( E L ( _ Q V d > O s O       ",
"o o o O $ o O r B H _ +.+._ _ *.5.>.O.@.>.5.O.W H C B B c c c c c c c c B W +.&.+.( W _ O.*.>.;...W L E O._ Q V r O . $ O o o o ",
". . o O > . o < g B W O.+..._ &.2.5.@.+.*.6.*._ L H C C B B B B B B C H W +.@.+.W W ( O.@.>.>.@.( E E _ +.( H g O o . > O o . . ",
"        .     O e c L ..+.O.( +.>.7.*.O.+.5.5.&.W L L L L L H L L E ( +.*.@._ E E ( ..@.2.2.&._ E L W o.+.^ B g X     .         ",
"              X < c C ( +.O._ ..&.6.>.@...@.2.2.@.( E L L L E W ( _ _ _ ( W W W ( ..@.;.2.*...W L W O.&. .L c r X               ",
"X               O g M E ..+._ _ +.2.5.;.+...*.2.2.&...W E E E W W W W W E E ( _ O.&.;.>.*.O.W E E ..@.@.Q A g O               X ",
"                X < c C W +..._ ..*.6.5.*...O.*.5.2.*.+._ ( W E E E E W ( _ O.@.*.>.>.*...W E W ..@.&...H B e .               . ",
"                . O z B U _ O._ ( ..>.6.5.&.....@.>.5.5.>.&.+.O.......O.+.&.;.2.5.>.@._ E L W ..&.;.+.Q H c O                 . ",
"                  . e M K U _ .._ ( @.2.6.2.&.O...O.&.;.>.2.>.>.>.>.>.>.>.>.>.*.@.O.( E E ( O.*.;.@.( U V e .                   ",
"                  . , n B C Q _ _ ( ..@.2.6.2.*.+...O.+.@.*.;.;.;.;.;.;.*.&.@.O._ W W ( _ @.*.>.*. .U K M $                     ",
"                  . O < g B C Q _ _ ( ..@.5.6.6.>.&.O._ _ _ ..O.+.O.O.O...( W W W ( _ +.*.>.<.;.X.E V M O .                     ",
"              . . . . O r z n D Q .._ ( _ +.>.6.7.6.>.*.@.O._ _ ( ( W W W ( ( ..+.&.;.>.5.2.*.X.I C g O     . . .               ",
"      . . . . . . . o O u , g B H E ( ( ( _ O.*.2.6.7.6.5.>.*.&.@.@.+.@.@.@.&.;.>.2.5.2.>.@.| I C d , O . . . . . . . . .       ",
"    . X .     .   . . O > o O d B S L Q W W ( ..@.;.2.6.6.6.6.5.2.2.2.2.2.2.5.5.5.5.>.*.+.~ L B d O o , o . .         . X .     ",
"      .   .         .     .   O g m c S L E W W ( ..+.*.>.5.6.7.7.7.7.7.6.6.6.5.2.;.@.) P c c y X   .     .         .   .       ",
". . .               .           O 9 i n B S H L E W ( _ ..+.@.&.*.;.>.>.;.;.*.#.} W L B c e * X           .               . . . ",
"X . .             . O           . O $ < y B C B B C J L E W W ( _ _ .._ ( ( Q J C B c e * O O .           O .             . . X ",
"                    X .       . . X X X O e l g g l n n Z B B Z C C C C B n l e 7 e < X . . X . .       . X                     ",
"                              . . .       . $ , < e y y l e e < < 7 7 < < 7 < O O O .       . .         .                       ",
"        . .         O         . . .         o . X $ $ $ < , O $ $ O O O O O $ O > O         . . .         O         . .         ",
". .   O O O .     . > .       o .           .   . o . . . . . O $ O O . . . o > > o           . .       . > .     . O O O   . . ",
". .     . O X O O > d .     . O .       .     .               . .             o $ .   .       . O .     . d > O O O O .     . . ",
"            . .     d 7       O O                             o                               O O       7 d     . .             ",
"          . . .     > > .   . . . . .                 . .               .                 . . . . .   . > >     . . o           ",
"          O . .         . o o           . O O o         O O . .       o .         O O .           o o .         . . O           ",
"          . . . .         O O .         . O O .           O o .   O o .         . O O .         . O X         . . . .           ",
"            .             . .             . . . . .       O O . O s $     .   . . . .             . .             .             "
};
