/* XPM */
static char *_b725c21bb8b4a4d8be94ef17907f7e5[] = {
/* columns rows colors chars-per-pixel */
"64 64 104 2 ",
"   c #020204",
".  c #050609",
"X  c #08060A",
"o  c #06090B",
"O  c #0A0B0D",
"+  c #08140E",
"@  c #070E10",
"#  c #0C0E11",
"$  c #100F11",
"%  c #0D1113",
"&  c #031D11",
"*  c #0B1A13",
"=  c #131314",
"-  c #151A17",
";  c #171718",
":  c #181718",
">  c #141A1B",
",  c #19181B",
"<  c gray10",
"1  c #1B1A1B",
"2  c #1B1B1B",
"3  c #181818",
"4  c #1B181C",
"5  c #1D191D",
"6  c #1C1C1C",
"7  c #03390E",
"8  c #002010",
"9  c #012111",
"0  c #022213",
"q  c #032415",
"w  c #082114",
"e  c #092015",
"r  c #052D10",
"t  c #052916",
"y  c #0C2816",
"u  c #0B291C",
"i  c #1E201E",
"p  c #1C271E",
"a  c #063410",
"s  c #063015",
"d  c #003913",
"f  c #003A13",
"g  c #003B13",
"h  c #003D13",
"j  c #053C12",
"k  c #083419",
"l  c #0F301E",
"z  c #201F20",
"x  c #1F2020",
"c  c #192C24",
"v  c #1D2F28",
"b  c #202320",
"n  c #202720",
"m  c #222722",
"M  c #232424",
"N  c #202B22",
"B  c #2C2629",
"V  c #2F2F2F",
"C  c #2C2C2C",
"Z  c #342B2F",
"A  c #2B352D",
"S  c #342C30",
"D  c #382E33",
"F  c #2E3A35",
"G  c #353535",
"H  c #353536",
"J  c #373536",
"K  c gray21",
"L  c #343434",
"P  c #393235",
"I  c #383436",
"U  c #323C35",
"Y  c #3B3538",
"T  c #3B3B3B",
"R  c #03400E",
"E  c #03410F",
"W  c #00490B",
"Q  c #004B0A",
"!  c #004A0B",
"~  c #004C0A",
"^  c #034B0D",
"/  c #005E05",
"(  c #005F05",
")  c #02520A",
"_  c #006005",
"`  c #006105",
"'  c #006205",
"]  c #3A423D",
"[  c #433D40",
"{  c #3F4542",
"}  c #434343",
"|  c #474A49",
" . c #494C4B",
".. c #4C4E4E",
"X. c #4B4B4B",
"o. c #545555",
"O. c #555555",
"+. c #545454",
"@. c #585758",
"#. c #585858",
"$. c gray35",
"%. c #5A5A5A",
"&. c #5B5B5B",
"*. c #5A5A5A",
/* pixels */
"            .             . .             . . . . . .     O O . O > O     .     . . .             . .             .             ",
"          . . . .         O O .         . O O .         . @ . .     . .         . O O .         . O O         . . . .           ",
"          O . .         . . .           . . . .         . O . .       . .       . O O .           . . .         . . O           ",
"          . . .     # # .   . . . . .             . .                     .       . .     . . . . .   . % %     . . .           ",
"            . .     . O       O O                   .   . . . .           .                   O O       # =     . .             ",
". . .   . O O O O O .       . O .       .     O                 .     . . .     .             . O .       . O O O O O .   . . . ",
". .   O O O .       .         . .           . % .             . O . X . .       .             . .         .       . O O O   . . ",
"      . . .                   . . .     . % & q 9 & + O .     .     X O O & & 9 9 * O         . .         .         . . .       ",
"                                . .   . O e R ~ ! ! r * 5 2 : ; ; ; 6 2 * 7 ! ! ~ a * .         .                               ",
"                    . .         . X . O % t ) _ _ / j c P G G G G G I C u ^ / _ _ R e O . .     .       . .                     ",
"X . .             . O             X O O ; - s d h d l F O.%.%.%.%.%.@. .v k d h d y ; ; O . .             O .             . . X ",
"  . .               . . . . O O O = = 2 2 2 M n N U { ..%.%.%.%.%.%.%.O.| ] A p n i 2 2 ; = = O O . . . . .               . . . ",
"    . O X O . O O O = % = = = ; ; 2 2 6 6 M S Z C [ +.%.%.+.| } } ..O.%.%.X.I B D B M 6 6 2 2 ; = = = = O = O O O . O X X .     ",
"  . O = = = ; ; 3 2 2 2 2 6 6 6 6 6 6 6 B C T T L T +.&.%.} G C C T ..%.&.} G L } G C M 6 6 6 6 2 2 6 2 2 2 2 ; ; = = = = O     ",
"  O : z 6 2 6 6 z 6 6 6 6 2 2 2 2 2 2 B C C T T G G ..%.O.G L G I L } %.%.} G G } G C L M 2 2 2 2 2 2 6 6 6 M M 6 6 2 6 6 ;     ",
"  O 6 G G C B M 6 6 2 2 2 2 2 2 2 6 C L L C T T G L | %.+.G G T T L } O.%.T L T } G C G C B 6 2 2 2 2 2 2 2 6 6 M C Z I C ;     ",
". O M } } T G C C B x 6 6 6 6 M B C L G G C T T G C | %.+.G I } } L } O.%.T L T } G C G G C B M 6 6 6 6 6 M B C L T } } L ;     ",
"  O 2 T } } } } } T V C B B B C G T T G L C T T G C | %.+.G G } } L } O.O.T L T } G C G T T T G C B B B C G T } } } } } C =     ",
"  . ; T } } } } } } } } T T G G G G G G L C T T G C } O.+.G G } T L } O.O.T L T } L C G G G G T G T T T } } } } } } } } C O     ",
".   O C T } } } } } } } } T T G G G G G L C T T G C } O.+.G G } } L } O.O.T L T } L C G G G G G G T } } } } } } } } } G z .   . ",
".   . : C } } } } } } } } T G G G G G G L C T T G C } O.+.L T } } L T O.O.T L T } G C G G G G G G T T } } } } } } } T B =     . ",
"X     . 2 C } } } } } } } T G G G G G G L C T T G C } O.+.L T } } L T O.O.T L T } G C G G G G G G T T } } } } } } T B O       X ",
"        O ; C T } } } } } T G G G G G G L C T T G C } O.+.L T } } L T +.O.T L T } G C G G G G G G T T } } } } } G M # X         ",
"        . O = C T } } } } T G G G G G G L C T T G C } O...L G } } C T +.O.T L T } G C G G G G G G T T } } } } G M O . .         ",
". . . O % . . = B T } } } T G G G G G G L C T T G C | O...L G } } C T O.O.T L T } G C G G G G G G T T } } } G 6 O     # O .     ",
". . . O # . .   O M T } } T G G G G G G L B T T G C | O...C G } } C T +.%.T L T } L C G G G G G G T T } } L 2 O       O O . .   ",
"      O > O O . . O x L T T G G G G G G L B T T G L | O...L I } } C T +.%.T L T } L C G G G G G G T T T C ; O .       . .       ",
"      . % O % .     O 6 C G K G G G G G L B T T G G ..%...L I } } C T +.%.} G G } L C G G G G G T G L C ; .           . .       ",
"  . O % .   .       . O ; B G T T G G G L B T T G G ..%...C G } } C T +.%.} G G } L C G G G G T T C 6 O .       . % .   % O .   ",
"      . .               . O M L T T G G L B T T G G ..O.| C T } } L T +.&.} G G } L C G G G T T C 2 O           . O O       .   ",
"        + O               . O 6 C G T G L B T T G T +.%.| C L T T C G +.&.} G G } L C G T K L B ; O               . O           ",
"        O %                   O 2 C G T L B T T L T +.%...C C L L C T +.&.| T G } L C T T L B = X             .     # .         ",
"        . O O O O O O O O .     . = C G G B T T V T +.%.+.T L C C G } O.%.} G C ] L C T G M %       . .       O O O O .         ",
"        . . O .     . .         . . ; M C B K L C T ] } T T T G K T T } } T L B T L C C 6 O .           .       . O . .         ",
"      . .                           O = 6 M C B M C C C C L L L L L C C C C C M C B 6 6 O .       .               . . . .       ",
"        .                             O O ; 2 6 M B M M M M M B M M M M M B B M 6 2 = .                 .     .       . .       ",
"            .                       . @ O = 2 B L L B 6 6 6 M M M M 6 6 M C L L M ; O               O .   .       .             ",
"      O > # O . .                 . . % O # 2 B G L M 6 6 6 6 6 6 6 6 6 6 C L L M = O . O               . % . . . O O > O       ",
". . . O # . .   . O                     . O 3 B L C M 2 6 6 6 6 6 6 6 6 2 B L L z = O               O       # .   . . # O . . . ",
". . . O % . .                             O ; M L C M 2 6 6 6 6 6 6 6 6 2 B L C 6 = O               O       .     . . % O . .   ",
"        .           O . .     . . .       O = M C L M 6 6 6 6 6 6 6 6 6 2 C L C 6 $ .               . . . O           .         ",
"                                .         . = z C L M 2 2 2 2 6 6 6 6 2 2 C C B 6 O .     .           . . .                     ",
"X                             .   . O     . ; 6 B L B 2 2 2 2 2 2 2 2 2 2 C C M 6 O       O                                   X ",
"                            .   . # O       = 6 M L B 2 2 2 2 2 2 2 2 2 6 C C 6 2 O       O .                                 . ",
"                    .   # O       . O       = 2 M L C 6 > 2 2 2 2 2 2 2 M C C 6 2 O       O .         .   .                   . ",
"                    . . #         . . .     O 2 6 C C B 2 2 2 2 2 2 2 6 C C B 2 ; O     . O .         @ . .                     ",
"                  . . O .         O O       O ; 6 C A C 6 2 2 2 2 2 2 M L C B 2 ; O       O O         % O .                     ",
"                  . . .             .       O ; M B C V B 6 2 2 2 2 6 C L C M 6 = O       .           .                         ",
"              . . . . . .       .           O ; 6 M C L C C B B B B C A L C M 6 O .           .       .     . . .               ",
"      . . . . . . . O O %     . . .         X = 6 M C G G L L L A L L G T B 6 2 O .         . . .     O   . . . . . . . .       ",
"    . O .     .   . . O %       . O         . $ 2 6 L T T G G G G G K T T C 6 ; O           O .       % . . .         . O .     ",
"      .   .         .     .     . X       .   O : 6 L T } } } T T } } } T C 5 = .   .       X .     .     .         .   .       ",
". . .               .             .       X   X = 6 C T } } } } } } } } G B 2 $ .   X       .             .               . . . ",
"X . .             . O             X .     . . . O 2 B G } } } } } } } T C M ; O   . .       X             O .             . . X ",
"                    O .       . . X .     . .   . = 6 C } } } } } } } T B 2 #     . .     . X . .       . O                     ",
"                              . . .         .     # 2 C } } } } } } } T 6 ; O   . .         . .         .                       ",
"        . .         O         . . .         .     O = B T } } } } } T L 2 O O O # O         . . .         O         . .         ",
". .   O O O .     . % .       . .           .     . O 2 V { } } } } T C = . . % % .           . .       . % .     . O O O   . . ",
". .     . O O O O % > .     . O .       .     .       O i K } } } T C ; .     . # .   .       . O .     . > % O O O O .     . . ",
"            . .     > =       O O                     . # 2 M B B x ; O .                     O O       = >     . .             ",
"          . . .     % % .   . . . . .                 . . O O % % O .   .                 . . . . .   . % %     . . .           ",
"          O . .     .   . . .           . O O .         O O . .       . .         O O .           . . .         . . O           ",
"          . . . .         O O .         . O O .           O . .   O O .         . O O .         . O O         . . . .           ",
"            .             . .             . . . . .       O O . O > O     . . . . . .             . .             .             "
};
