/* XPM */
static char *bb7ddc9490254eeff7bae3efea18e486uNKA1cDWjGJ2lCws[] = {
/* columns rows colors chars-per-pixel */
"64 64 172 2 ",
"   c #020203",
".  c #050609",
"X  c #08060A",
"o  c #030809",
"O  c #040809",
"+  c #070809",
"@  c #060909",
"#  c #070909",
"$  c #05080A",
"%  c #04090B",
"&  c #06080A",
"*  c #07080A",
"=  c #07080B",
"-  c #06090B",
";  c #07090C",
":  c #060A0C",
">  c #070B0D",
",  c #070C0C",
"<  c #060C0D",
"1  c #070E0F",
"2  c #06090B",
"3  c #080809",
"4  c #08080A",
"5  c #08090A",
"6  c #09090A",
"7  c #09090B",
"8  c #090A0A",
"9  c #0B0B0B",
"0  c #08080C",
"q  c #09090C",
"w  c #09080D",
"e  c #0A090D",
"r  c #080A0C",
"t  c #090A0D",
"y  c #090B0D",
"u  c #0A0A0C",
"i  c #0A0B0C",
"p  c #0B0B0C",
"a  c #0A0A0D",
"s  c #0A0B0D",
"d  c #080C0C",
"f  c #0B0C0C",
"g  c #0B0C0D",
"h  c #0A0C0E",
"j  c #0B0C0F",
"k  c #0A0D0F",
"l  c #080E0E",
"z  c #090F0F",
"x  c #0C0C0C",
"c  c #0C0C0E",
"v  c #0C0D0E",
"b  c #0E0E0E",
"n  c #0E0E0F",
"m  c gray6",
"M  c #0A0B0D",
"N  c #00150B",
"B  c #09100D",
"V  c #02180E",
"C  c #070E10",
"Z  c #0C0E10",
"A  c #0F0E10",
"S  c #0E0F12",
"D  c #0E0F13",
"F  c #0C0F11",
"G  c #0E1113",
"H  c #0E1014",
"J  c #0F1114",
"K  c #0C1314",
"L  c #0E1314",
"P  c #0D1113",
"I  c #051A11",
"U  c #0B1D14",
"Y  c #101010",
"T  c #101012",
"R  c #101112",
"E  c #101212",
"W  c #111313",
"Q  c gray7",
"!  c #131313",
"~  c #101214",
"^  c #131314",
"/  c #131415",
"(  c #121417",
")  c #151515",
"_  c gray9",
"`  c #131414",
"'  c #121A16",
"]  c #171718",
"[  c #141B1B",
"{  c #14191B",
"}  c #181818",
"|  c #191919",
" . c gray10",
".. c #1B1B1B",
"X. c #1B1C1C",
"o. c gray11",
"O. c #1C1C1D",
"+. c #1D1D1D",
"@. c #1D1D1E",
"#. c #1E1E1E",
"$. c #1B1B1B",
"%. c #00390F",
"&. c #0C2314",
"*. c #022F14",
"=. c #0C2915",
"-. c #0F2F1E",
";. c #142D1D",
":. c #023511",
">. c #003A12",
",. c #231F21",
"<. c #1C2622",
"1. c #173320",
"2. c #183421",
"3. c gray13",
"4. c #202020",
"5. c #232323",
"6. c #232424",
"7. c #242425",
"8. c #252526",
"9. c #272727",
"0. c #232323",
"q. c #2D2327",
"w. c #2E2529",
"e. c #282828",
"r. c gray16",
"t. c #2C2C2D",
"y. c #2F2F2F",
"u. c #2C2C2C",
"i. c #34262D",
"p. c #243C2D",
"a. c #2F2F30",
"s. c #362E31",
"d. c gray19",
"f. c #313131",
"g. c #323232",
"h. c #343434",
"j. c #373737",
"k. c gray21",
"l. c #343434",
"z. c #373738",
"x. c #333D39",
"c. c gray22",
"v. c #393939",
"b. c #3A3A3A",
"n. c gray23",
"m. c gray24",
"M. c #3C3C3C",
"N. c #3E3E3E",
"B. c #3F3F3F",
"V. c #3B3B3B",
"C. c #02440F",
"Z. c #00490E",
"A. c #005F04",
"S. c #034211",
"D. c #006203",
"F. c #006B01",
"G. c gray25",
"H. c #414141",
"J. c #434343",
"K. c gray26",
"L. c #444444",
"P. c gray27",
"I. c #464646",
"U. c gray28",
"Y. c #434343",
"T. c #4B4347",
"R. c #4C4448",
"E. c #494949",
"W. c #4B4B4B",
"Q. c #545454",
"!. c #585456",
"~. c #595959",
/* pixels */
"            .             . .             . . . . . .     C > o < { j     . . . . . .             . .             .             ",
"          . . . .         u u .         . u u .         o C + o     + o         . u u .         . u u         . . . .           ",
"          u . .         + Y ) ^ S v 3 . . + . .         + > o o       + o       + j j .           + + .         . . u           ",
"          . . .     S S v ) 3.t.r.9.o.v .         o o                     o               . . . . .   . H H     . . +           ",
"            . .     + u v $.f.E.U.U.b.9.Y .         .   o o . .           +                   u u       S ^   o . .             ",
". . .   . u u u j u . . 3 _ r.G.U.U.U.B.9.Y + u                 .     . . o     .             . u .       . u j u u u .   . . . ",
". .   j j u .       . . v | 9.k.G.U.U.U.b.9./ G .             . u . X .         .             . +         .       . u j j   . . ",
"      . . .           . Y | 3.t.G.U.U.U.U.b.6./ .                   . .         > .           . .         .         . . .       ",
"                      . Y o.3.3.B.U.U.U.U.U.B.o.3       u .         . .           .             .                               ",
"                    . 3 ) o.o.o.k.G.U.U.U.U.G.z.o.u     . .         . .           .             .       . .                     ",
"X . .             . v 3 | o.o.o.t.B.U.U.U.U.U.U.f.| .                     .       .         .             j .             . . X ",
". . .               . 3 | o.o.| 9.b.U.U.U.U.U.U.G.t.Y . . .           + . . . .     .       .             .               . . . ",
"          .         . j | o.| | 3.k.U.U.U.U.U.U.U.B.t.Y .             + . .   .             X .     .     .         .   .       ",
"    . X .     .     . Y | | | | o.f.G.G.B.B.B.B.B.B.k.3.v                                   u .       G j . .   .     . 3 .     ",
"      . . . . . .   3 Y X.| | | 3.f.B.b.b.b.b.b.b.b.b.d.o.v                                 . .       G < . . . . . . . .       ",
"              . .   3 Y | | | | 9.f.b.k.k.k.k.k.k.k.k.b.u.| .                                 .       + .       .               ",
"                  . 3 Y | | | | t.k.b.k.k.k.k.k.k.k.k.b.k.r.) j                           .             .                       ",
"                  . v ) o.| | o.f.k.k.k.k.k.k.k.k.k.k.k.b.k.r.) +                         +           . j                       ",
"                    S | o.| o.9.k.k.k.k.k.k.k.k.k.k.k.k.k.b.k.3.Y                                     +   .                     ",
"                  . ^ o.o.o.9.k.b.k.k.k.k.k.k.k.k.k.k.k.k.b.b.k.3.v                         .             .                   . ",
"              . 3 G ] o.o.r.f.k.k.k.k.k.k.k.k.k.k.k.k.k.k.k.k.b.t.o.3                     + 3                                 . ",
"X           . B I ' | o.9.r.t.f.t.t.t.t.f.f.t.t.t.t.t.t.t.t.t.f.t.9./ 3 . . . .           3                                   X ",
"            , &.>.=.$.3.f.f.t.t.t.t.t.t.f.f.f.t.t.t.t.t.t.t.t.t.t.r.| ) Y Y v v 3 3 3 . . .                                     ",
"        .   N %.F.C.;.i.G.U.G.G.G.G.G.G.U.U.U.G.U.U.G.G.G.G.G.G.B.h.$.o.o.o.| | | | | _ ) Y Y v u 3       .           .         ",
". . + j H + V >.F.Z.;.q.h.b.b.B.b.b.B.B.B.B.b.b.b.b.b.b.b.b.b.k.f.r.o.r.t.t.r.r.9.3.o.o.| | | | | { / v + . .         j j +     ",
". + + j C o I >.F.Z.2.s.h.k.k.k.f.k.k.k.k.f.f.f.f.f.k.k.k.k.k.k.f.r.3.t.f.f.f.t.t.r.r.9.9.3.3.3.o.o.| ) Y v S .       + j + .   ",
"      < { j I :.A.S.p.R.G.B.b.k.f.f.f.f.f.f.f.f.k.k.b.b.b.B.G.G.B.k.9.t.t.r.r.t.t.t.f.f.f.t.r.9.3.9.9.3.o.| ) v .     + +       ",
"      o K < K U *.;.x.!.~.Q.Q.Q.Q.Q.Q.Q.Q.Q.Q.Q.Q.Q.Q.Q.~.~.~.~.E.k.9.3.3.o.o.o.o.o.o.3.r.f.f.f.f.b.b.k.t.9.o.) Y 3 . + o       ",
"  . < K o   u G <.x.W.~.~.~.~.Q.Q.Q.Q.Q.Q.Q.Q.Q.Q.Q.Q.Q.Q.Q.Q.Q.E.k.9.3.o.| o.o.o.| | o.o.3.r.f.k.b.B.G.B.c.k.t.r.o.G o P < .   ",
". .   + +     v w.W.~.~.Q.W.E.E.E.E.E.E.U.U.U.U.U.U.G.G.G.G.B.E.G.k.9.3.o.o.o.o.o.| | | | | 3.r.f.k.G.G.G.G.G.B.b.t.o.3     . . ",
"        j <   v r.W.~.Q.U.k.t.t.t.t.t.t.t.t.t.r.r.r.r.r.r.r.3.f.b.k.9.3.o.o.o.o.o.| | | | | | 3.t.k.B.G.G.G.G.G.U.G.r.v         ",
"        < K   G r.W.~.Q.f.f.b.B.B.B.B.B.B.B.B.B.B.B.B.B.B.b.f.t.k.k.9.3.o.o.o.o.o.| | | | | | 3.t.k.B.G.G.G.G.G.G.G.t.)         ",
"        . > > / r.W.~.W.t.f.B.G.G.G.G.G.G.G.G.G.G.G.G.G.U.G.k.t.k.k.9.3.o.o.o.o.o.o.| | | | | 3.t.k.B.G.G.G.G.G.G.U.f.{         ",
"        . + u Y r.W.~.Q.k.f.b.b.b.b.B.B.B.B.B.B.b.B.B.B.B.b.f.f.k.k.9.3.o.o.o.o.o.o.| | | | | 3.t.k.B.G.G.G.G.G.U.U.a.)         ",
"      . . . . v r.W.~.Q.U.k.t.t.t.t.t.t.t.r.r.r.r.r.r.r.r.9.3.f.b.k.9.3.o.o.o.o.o.| | | | | | 3.t.k.B.G.G.G.G.G.U.G.r.Y .       ",
"        .     v w.E.~.~.Q.W.E.E.E.E.E.E.E.E.E.U.U.U.U.U.G.G.G.E.G.k.9.3.o.o.o.o.o.| | | | | 3.r.f.k.B.J.G.G.G.B.b.r.} 3         ",
"            3 G <.x.W.~.~.~.~.Q.Q.Q.Q.Q.Q.Q.Q.Q.Q.Q.Q.Q.Q.Q.Q.Q.E.k.9.3.o.| o.o.| | | o.o.9.r.f.k.b.B.B.b.k.f.t.9.| u .         ",
"      < { j K U :.-.x.!.Q.Q.Q.Q.Q.W.W.W.W.W.W.Q.Q.Q.Q.Q.Q.Q.~.Q.E.k.9.3.3.o.o.o.o.o.3.9.r.f.f.f.f.k.b.k.t.3.o.) Y C C { <       ",
"+ + + j C o I :.D.S.p.T.G.b.k.f.f.f.f.f.f.f.f.f.f.k.k.k.b.b.B.G.B.k.9.t.f.t.t.t.f.f.f.f.f.t.r.9.3.3.3.3.o.| ) G o + o C j + + + ",
". . + j H . V %.F.Z.1.s.h.k.k.k.k.k.k.k.k.k.f.f.f.f.k.k.k.k.k.k.t.r.3.t.f.f.f.t.t.r.r.9.9.3.3.3.o.o.| ) Y v j .   o . H j + . . ",
"        .   N %.F.Z.;.q.k.b.B.B.B.B.B.B.B.B.b.b.b.b.b.b.b.b.b.k.f.r.o.9.u.u.r.9.9.3.o.o.| | | | ) ) ^ S u v .         .         ",
"            N %.F.C.;.i.G.G.G.G.G.G.G.G.G.G.G.G.G.G.G.G.G.G.G.G.B.f.o.o.o.$._ _ | | | ) ) Y S v 3 .   o + .                     ",
"X           3 U >.=.$.,.t.t.t.t.t.t.t.t.t.t.t.t.t.t.t.t.t.t.r.r.t.r.| / Y Y v 9 p 3 X . . v .                                 X ",
"            . d I ' | o.9.r.t.f.f.f.f.f.f.f.f.f.f.f.t.t.t.t.t.f.t.9.Y 3 . . .             u .                                 . ",
".             . 3 v ) o.o.9.f.k.k.k.k.k.k.k.k.k.k.k.k.k.k.k.k.b.t.o.u                     u .         +   .                   . ",
"                  . Y o.o.| 9.k.b.k.k.k.k.k.k.k.k.k.k.k.k.b.b.k.o.3                     . 3 .         C o .                     ",
"                  . G | o.| o.9.k.k.k.k.k.k.k.k.k.k.k.k.k.b.k.3.Y                         j u         H j .                     ",
"                  . S ) o.| $.o.f.k.k.k.k.k.k.k.k.k.k.k.b.k.9.Y 3                         .           +                         ",
"              . . . j / | | | | t.k.b.k.k.k.k.k.k.k.k.b.k.r./ 3 . .                           .       .     . . .               ",
"      . . . . . . . j / X.| | | 9.f.b.k.k.k.k.k.k.k.k.b.r.| + o + + +                       . . .     j   . . . . . . . .       ",
"    . 3 .     .   . u Y X.| | | 3.f.B.b.b.b.b.b.b.b.b.t.o.Y       + +                       u .       G + . .         . 3 .     ",
"      .   .         3 v | | | | 3.k.G.G.G.G.B.B.B.B.k.3./ u           + . .   .     .       X .     .     .         .   .       ",
". . .               . 3 | o.| | 3.k.U.U.U.U.U.U.U.B.t.Y 3 .           . . .         X       .             .               . . . ",
"X . .             . v u | o.o.| 9.b.U.U.U.U.U.U.G.t.^ .                   .       . .     . X             j .             . . X ",
"                    3 j | o.o.o.f.B.U.U.U.U.U.U.a.| .   .                         . .     . X . .       . 3                     ",
"                      3 ) o.o.o.k.G.U.U.U.U.G.k.X.3     X                       o .         . .         .                       ",
"        . .         u . Y o.3.3.B.U.U.U.U.U.b.| 3                           . > D u         . . .         u         . . .       ",
". .   u j u .     . H . Y | 3.t.G.U.U.U.U.k.3.3 .             . u . .       . P H +           . .       . H .     . u j j   . . ",
". . .   . u u u j H { + v | 9.k.G.U.U.U.b.9.Y +               . .             > S .   .       . u .     . { H j u u u .     . . ",
"            . .     { ^ v ) r.G.U.U.G.B.9.^                 . u                               u u       ^ {     . .             ",
"          . . .     H H v X.f.E.U.U.b.3.S +           o o               o                 . . . . .   . H H     . . +           ",
"          u . .         u | 3.r.9.,.| S u j j +         < < o o       > +         u u .           + + .         . . u           ",
"          . . . .       . Y ) ^ S u . . . u u .           < + o   < > o         . u u .         . u u         . . . .           ",
"            .             . .             . . . . .       j > o < [ C     . . . . .               . .             .             "
};
