/* XPM */
static char *c64bb61a4ffc401c8c2c64a3feb7fa05aHECKx9ZPmQChbBZ[] = {
/* columns rows colors chars-per-pixel */
"64 64 172 2 ",
"   c #020204",
".  c #050609",
"X  c #08070A",
"o  c #03080A",
"O  c #030909",
"+  c #040809",
"@  c #070809",
"#  c #060909",
"$  c #05080A",
"%  c #04090B",
"&  c #06080A",
"*  c #07080A",
"=  c #07080B",
"-  c #06090B",
";  c #07090B",
":  c #07090C",
">  c #060A0C",
",  c #070B0D",
"<  c #070C0C",
"1  c #060C0D",
"2  c #070E0F",
"3  c #05090B",
"4  c gray3",
"5  c #08080A",
"6  c #09090B",
"7  c gray4",
"8  c #0A0A0B",
"9  c #09090C",
"0  c #0A090D",
"q  c #080A0C",
"w  c #090A0C",
"e  c #080A0D",
"r  c #090A0D",
"t  c #090B0D",
"y  c #0B0B0C",
"u  c #0A0A0D",
"i  c #0B0A0D",
"p  c #0A0B0D",
"a  c #0A0B0E",
"s  c #0C0B0C",
"d  c #080C0C",
"f  c #0B0C0D",
"g  c #0A0C0E",
"h  c #0B0C0F",
"j  c #0A0D0F",
"k  c #080E0E",
"l  c #090F0F",
"z  c #0C0C0C",
"x  c #0C0D0E",
"c  c #0D0D0E",
"v  c #0D0D0F",
"b  c #0E0E0E",
"n  c #0F0F0F",
"m  c #0A0B0D",
"M  c #07130E",
"N  c #031B0F",
"B  c #0B0E12",
"V  c #0D0D10",
"C  c #0C0E10",
"Z  c #0F0F11",
"A  c #0D0E12",
"S  c #0E0F13",
"D  c #0C0E10",
"F  c #100F11",
"G  c #0F1011",
"H  c #0C1012",
"J  c #0F1114",
"K  c #0C1314",
"L  c #0E1314",
"P  c #0D1113",
"I  c #021D11",
"U  c #0B1A13",
"Y  c #101010",
"T  c #111012",
"R  c #111212",
"E  c #131313",
"W  c #101214",
"Q  c #121314",
"!  c #141315",
"~  c gray8",
"^  c #141415",
"/  c #151516",
"(  c #141314",
")  c #191417",
"_  c #141B17",
"`  c #171718",
"'  c #141519",
"]  c #181718",
"[  c #141B1B",
"{  c #14191B",
"}  c #181818",
"|  c #191919",
" . c #1A1A1B",
".. c gray10",
"X. c #1C1B1C",
"o. c gray11",
"O. c #1D1D1D",
"+. c #1E1E1E",
"@. c gray12",
"#. c #1C1C1C",
"$. c #04370F",
"%. c #033D0F",
"&. c #042215",
"*. c #052B14",
"=. c #0C2A15",
"-. c #0A281B",
";. c #1E231E",
":. c #1A291E",
">. c #063213",
",. c #013D12",
"<. c #0B331B",
"1. c #1C2B22",
"2. c #202020",
"3. c #212121",
"4. c #212122",
"5. c #222222",
"6. c gray14",
"7. c #252525",
"8. c gray15",
"9. c #272727",
"0. c #232323",
"q. c #2C2629",
"w. c #282828",
"e. c #292929",
"r. c #2A2A2A",
"t. c gray17",
"y. c gray18",
"u. c #2F2F2F",
"i. c #2D2D2D",
"p. c #2C2C2C",
"a. c #332A2E",
"s. c #28362C",
"d. c #372E33",
"f. c #2D3A33",
"g. c gray19",
"h. c #313131",
"j. c #323232",
"k. c #343434",
"l. c #353535",
"z. c gray21",
"x. c #373737",
"c. c #343434",
"v. c #3C3538",
"b. c gray22",
"n. c #393939",
"m. c gray23",
"M. c #3A3A3A",
"N. c gray24",
"B. c #3C3C3C",
"V. c #3E3E3E",
"C. c #3F3F3F",
"Z. c #3B3B3B",
"A. c #01450C",
"S. c #014A0C",
"D. c #015409",
"F. c #004012",
"G. c #006304",
"H. c #37413B",
"J. c #3C433F",
"K. c #433D40",
"L. c gray25",
"P. c #414141",
"I. c gray26",
"U. c #434343",
"Y. c #444444",
"T. c #444444",
"R. c #444847",
"E. c #474A49",
"W. c #4C4C4C",
"Q. c #534F51",
"!. c #545454",
"~. c #5A5A5A",
/* pixels */
"            .             . .             . . . . . .     h , O 1 { h     . . . . . .             . .             .             ",
"          . . . .         u u .         . u u .         O 2 # O     # O         . u u .         . u u         . . . .           ",
"          u . .         . # #           . # . .         # , O O       # O       # h u .           # # .         . . u           ",
"          . . .     A A .   . . . . .             O O                     O               . . . . .   . S L     . . #           ",
"            . .     # u       u u                   .   # u K Q R n # .   #                   u u       A Q     . .             ",
". . .   . u u u h 5 .       . u .       .     u       . n O.6.e.e.2.' A . O     .             . u .       . u h u u u .   . . . ",
". .   h h u .       .         . .           # K .     n 2.b.P.Y.Y.P.y.| 5 .     .             . #         .       . u h h   . . ",
"      . . .                   . . .         u B     5 O.h.P.P.P.P.P.b.e.R .     , .           . .         .         . . .       ",
"                              . . .         . .   5 R 6.B.P.P.P.P.P.P.l.| n .     .             .                               ",
"                    . .       . . X .     . .     A | e.P.P.P.P.P.P.P.b.2.~ u     .             .       . .                     ",
"X . .             . h             X .     . .   . ~ O.y.Y.P.P.P.P.P.P.B.6.| A     .         .             h .               . X ",
"  . .               .             .       X   . n | 6.l.Y.P.P.P.P.P.P.P.y.2.~ u     .       .             .               . . . ",
"      .             .     .       .       .   X ! O.y.b.Y.P.P.P.P.P.P.P.b.6.| R             X .     .     .             .       ",
"    . 5 .     .     . d L         .           s | O.h.B.P.P.B.B.B.P.P.P.B.e.X.~ .           u .       K h . .   .     . 5 .     ",
"      . . . . . .   . d K                   . n O.O.h.b.b.l.l.l.l.l.l.b.B.e.O.| 5           . .       K 1 . . . . . . . .       ",
"              . .   .   #       .         . 5 R O.2.y.l.l.h.h.y.y.h.h.l.l.e.O.O.n .           .       # .       .               ",
"                  .                 .       5 ~ 2.2.y.h.y.e.6.6.6.6.e.h.l.e.2.O.n .       .             .                       ",
"                  .     #         # h       u ~ 2.6.y.h.6.| | | | | O.e.l.e.2.O.R .       #           . h                       ",
"                                  . u .     n ~ O.e.h.e.O.| | | | | | 2.h.y.6.| ~ 5                   #   .                     ",
"                    # O .         L A       R | O.y.y.6.| | | | | | | O.e.y.e.| ~ 5         .             .                   . ",
"                    . O ,       h ' u       R | 2.h.e.O.| | | | | | | | 2.y.e.O.| s       # 5     .                           . ",
"X                   # , O # , # O . u       ~ O.2.h.6.| | | | | | | | | O.y.y.O.| n       5                                   X ",
"                    . , O     . . . .     . ~ O.6.h.2.| | | | | | | | | | e.y.2.#.n                                             ",
"        .           5 .       . .         . ~ 2.e.h.2.| | O.O.O.O.O.O.O.| e.y.6.#.Y .                     .           .         ",
". . # h L #                               s ~ 2.y.h.2.O.O.O.O.O.O.O.O.O.| e.h.e.#.R 5             , ,                 h h #     ",
". . # h B O #     .                       n ~ 6.h.h.2.| O.O.O.O.O.O.O.O.| 6.h.g.O.R 5             , O       #         # h # .   ",
"      1 { h 1       .                 . # n | 6.k.g.2.| O.O.O.O.O.O.O.O.| w.h.h.@.~ h # h         O                   # #       ",
"      O H 1 B O     # #         .   . h 5 n | e.l.h.2.O.O.O.O.O.O.O.O.O.O.e.h.h.2.~ n 1 h . u h #                     O O       ",
"  . 1 K O   #       + ,               O # R | 6.h.h.e.2.@.2.2.2.2.2.O.O.2.y.h.y.2.~ n #                         O L O   H 1 .   ",
". .   # #                         + O # n ~ | O.2.6.6.2.2.2.2.2.2.2.2.2.2.6.6.2.O.| Q 5                         O 1 h       . . ",
"        h 1                         1 ~ O.2.e.e.2.y.h.h.h.h.h.h.h.h.h.h.h.h.e.2.y.6.2.o.5                         O h           ",
"        1 H                       1 { 6.y.e.b.l.e.b.P.T.P.B.b.l.l.b.B.P.Y.B.h.e.b.h.e.y.O.R #                 #     B .         ",
"        . , , h h 1 , # h #     5 ~ y.l.l.6.B.b.h.B.!.~.!.B.h.y.y.l.Y.!.~.E.b.h.P.l.y.b.l.2.K       . #       , h , , .         ",
"        . # 5 .     # #     . n o.y.l.b.h.6.B.B.l.B.!.~.W.y.y.l.h.e.b.!.~.Y.b.l.P.l.e.l.b.h.6.^ 5       .       . u # .         ",
"      . . .               . n O.y.l.b.l.h.6.b.B.l.b.Q.~.E.y.h.B.B.e.l.!.~.Y.l.l.P.k.p.l.b.b.h.e.| K               . . . .       ",
"        .             . . R 2.h.b.b.l.l.h.6.b.B.l.l.W.!.W.h.b.Y.Y.h.b.!.~.P.l.l.P.l.y.l.l.l.b.b.e.o.n . 5     .       .         ",
"            .         5 ~ 6.l.b.b.l.l.l.h.e.Z.B.l.l.W.~.W.y.l.P.P.y.b.!.~.P.l.l.P.h.y.l.l.l.x.b.b.h.2.R . .       .             ",
"      1 { h 1 O # . 5 O.y.l.l.l.l.l.l.l.h.e.Z.B.l.h.W.~.W.h.l.P.P.y.b.!.~.P.l.l.P.h.e.l.l.l.l.l.l.x.l.e.{ K O O O 1 h { 1       ",
"# # # h B O #   h ^ 2.l.B.b.l.l.l.l.l.l.h.e.b.B.l.h.E.!.W.h.l.P.P.y.b.!.~.B.h.b.P.h.p.l.l.l.l.l.l.b.B.B.p.| Q h   # O B h # # # ",
". . # h L . . . n 2.B.P.P.b.l.l.l.l.l.l.h.e.b.B.l.y.E.!.W.y.l.P.P.y.b.!.~.B.h.b.P.h.p.l.l.l.l.l.l.b.B.Y.P.h.o.5   O . L h # . . ",
"        .   . R e.B.Y.Y.P.b.l.l.l.l.l.l.h.e.B.B.l.y.Y.!.W.h.l.P.P.y.B.!.~.B.h.b.P.l.y.l.l.l.l.l.l.b.B.Y.Y.P.b.O.n     .         ",
"        . 5 ~ y.B.Y.Y.Y.P.b.x.l.l.l.l.l.h.e.B.B.l.y.Y.!.!.h.l.P.P.h.B.!.!.B.h.b.P.l.y.l.l.l.l.l.l.b.B.Y.Y.Y.Y.l.2.A             ",
"X       5 ] p.C.Y.Y.Y.Y.P.B.l.l.l.l.l.l.h.e.B.B.l.y.Y.!.!.h.b.P.P.h.B.!.!.b.h.b.P.l.y.l.l.l.l.l.l.b.B.Y.Y.Y.Y.Y.l.6.R .       X ",
".     X | y.Y.Y.Y.Y.Y.Y.P.B.b.l.l.l.l.l.h.e.B.B.l.y.Y.!.!.h.b.P.P.h.B.!.!.b.h.b.P.l.y.l.l.l.l.l.l.b.B.Y.Y.Y.Y.Y.Y.B.6.R .     . ",
".   . | h.P.Y.Y.Y.Y.Y.Y.P.B.l.l.l.l.l.l.h.e.B.P.b.y.Y.!.!.l.b.P.P.h.B.!.!.b.h.b.P.l.y.l.l.l.l.l.l.b.B.Y.Y.Y.Y.Y.Y.Y.B.6.R     . ",
"    n e.B.Y.Y.Y.Y.Y.Y.Y.Y.P.b.b.l.l.l.l.h.e.B.P.b.y.Y.!.!.l.l.P.P.h.P.!.!.b.h.b.P.l.y.l.l.l.l.l.b.B.P.Y.Y.Y.Y.Y.Y.Y.Y.b.2.4     ",
"  . ~ b.Y.Y.Y.Y.Y.P.P.B.B.b.l.l.l.l.l.l.h.e.B.P.l.y.Y.!.!.l.l.P.P.h.P.!.!.b.h.b.P.l.y.l.l.l.l.l.l.b.b.B.C.P.Y.Y.Y.Y.Y.Y.e.n     ",
"  5 | B.Y.Y.E.Y.P.b.y.6.2.2.6.y.l.b.b.l.h.e.B.B.l.y.Y.!.!.l.l.P.P.h.P.!.!.b.h.b.P.l.y.l.b.b.b.h.e.6.2.2.e.k.B.Y.Y.E.Y.Y.y.R     ",
"  5 O.P.Y.B.l.y.6.2.O.O.O.O.O.O.2.6.k.l.l.e.B.B.l.y.E.~.!.l.l.P.P.h.P.!.~.B.h.b.P.l.y.l.l.y.6.2.O.O.| O.O.2.6.e.g.l.P.Y.l.~     ",
"  5 O.l.h.y.6.2.O.O.| | | | | | | O.w.g.h.e.B.B.l.h.E.~.!.l.l.B.B.h.P.!.~.B.h.b.P.l.y.l.y.2.O.| | | | | | | O.O.6.e.y.l.y.~     ",
"  5 | O.O.| O.2.O.O.O.O.O.#.#.#.| | | 6.y.e.B.B.l.l.W.~.!.b.h.l.l.h.P.~.~.P.l.l.P.l.e.y.2.| | | | | | O.O.O.O.O.O.| | O.O.~ .   ",
"    s A F R R ~ | | | | | O.O.O.O.O.O.O.6.e.B.B.h.b.!.~.~.Y.l.e.e.B.W.~.~.Y.l.h.P.l.e.2.O.O.O.O.O.O.O.| | | | ~ ( R R F n 5     ",
". . . . . . . . 5 5 n n n Y R ( ~ | | O.O.2.a.a.p.K.Q.~.~.!.E.Y.Y.W.!.~.~.W.v.q.d.q.2.O.O.| ] ~ R R R n n n 5 5 . . . . . . . . ",
"X . .             . n . . . . 5 n R ~ ~ | | ;.1.1.f.J.W.~.~.~.~.~.~.~.!.R.H.s.:.1.;.| | ~ R R n 5 . . . # n . .           . . X ",
"                    5 .       . . 5 5 A ~ _ >.,.,.,.<.f.!.!.~.~.~.~.!.R.1.<.,.F.,.=._ ~ u X X . .       . 5                     ",
"                      .       . . .   5 K *.D.G.G.G.,.1.d.k.l.l.l.l.k.y.-.S.G.G.G.A.&.n .   . .         .                       ",
"      . . .         u         . . .     h U %.S.A.A.*.U ) ~ ~ ~ ~ ~ ~ ~ U $.A.S.S.>.U #     . . .         u         . .         ",
". .   h h u .     . L .       # .       . n I N I I M 5       5 u X . . 5 N &.&.&.U h .       . #       . L .     . u h u   . . ",
". . .   . u 5 u h L { .     . u .       .     .               . .             # A .   .       . u .     . { L h u u u .     . . ",
"            . .     { Q       u u                           . u                               u u       Q {     . .             ",
"          . . .     L L .   . . . . .                 O O               O                 . . . . .   . L L     . . #           ",
"          u . .         . # #           . u h #         1 , O O       , #         u u .           # # .         . . u           ",
"          . . . .         u u .         . u u .           1 # O   1 , O         . u u .         . u 5         . . . .           ",
"            .             . .             . . . . .       h , O 1 [ B     . . . . . .             . .             .             "
};
