/* XPM */
static char *c718cb0b84b7446688dc29179f009a66[] = {
/* columns rows colors chars-per-pixel */
"64 64 169 2 ",
"   c #020203",
".  c #010B06",
"X  c #050609",
"o  c #08060A",
"O  c #03080A",
"+  c #030909",
"@  c #040809",
"#  c #070808",
"$  c #070809",
"%  c #060909",
"&  c #05080A",
"*  c #04090B",
"=  c #06080A",
"-  c #07080A",
";  c #07080B",
":  c #06090B",
">  c #07090B",
",  c #060A0C",
"<  c #070B0D",
"1  c #060C0D",
"2  c #070E0F",
"3  c #06090B",
"4  c gray3",
"5  c #080809",
"6  c #08080A",
"7  c #08090A",
"8  c #08080B",
"9  c gray4",
"0  c #0B0B0B",
"q  c #08080C",
"w  c #09090C",
"e  c #09080D",
"r  c #080A0C",
"t  c #090A0C",
"y  c #080A0D",
"u  c #090A0D",
"i  c #090B0D",
"p  c #0A0B0C",
"a  c #0A0A0D",
"s  c #0A0B0D",
"d  c #080C0C",
"f  c #0B0C0D",
"g  c #0A0C0E",
"h  c #0B0C0F",
"j  c #0A0D0F",
"k  c #080E0E",
"l  c #090F0F",
"z  c #0C0D0D",
"x  c gray5",
"c  c #0E0D0F",
"v  c #0D0E0F",
"b  c #0D0F0F",
"n  c #0E0E0E",
"m  c #0E0E0F",
"M  c gray6",
"N  c #0D0D0F",
"B  c #0A0B0D",
"V  c #06140E",
"C  c #0B0E12",
"Z  c #0C0E10",
"A  c #0E0E11",
"S  c #0D0E12",
"D  c #0E0F13",
"F  c #0B0E10",
"G  c #100F11",
"H  c #0D1111",
"J  c #0C1012",
"K  c #0F1114",
"L  c #0C1314",
"P  c #0E1314",
"I  c #0E1213",
"U  c #0D1A13",
"Y  c #101111",
"T  c #101112",
"R  c #111213",
"E  c gray7",
"W  c #101214",
"Q  c #131314",
"!  c gray8",
"~  c #151515",
"^  c #171717",
"/  c #131414",
"(  c #151618",
")  c #171818",
"_  c #171819",
"`  c #141B1B",
"'  c #16191A",
"]  c #181919",
"[  c #191919",
"{  c gray10",
"}  c #1B1B1B",
"|  c gray11",
" . c #1D1D1D",
".. c #1E1E1E",
"X. c gray12",
"o. c #1D1D1F",
"O. c #1B1B1C",
"+. c #201D1E",
"@. c #012614",
"#. c #032A13",
"$. c #082E14",
"%. c #0A2E1B",
"&. c #152118",
"*. c #063315",
"=. c #093117",
"-. c #0A341A",
";. c #10371F",
":. c #1F1F20",
">. c #221D21",
",. c #1F2021",
"<. c #1F342A",
"1. c #202020",
"2. c gray13",
"3. c #212122",
"4. c #232323",
"5. c #252525",
"6. c gray15",
"7. c #272727",
"8. c #232323",
"9. c #2C2226",
"0. c #272728",
"q. c #282829",
"w. c #2A2A2A",
"e. c gray17",
"r. c #2D2D2D",
"t. c #2C2C2C",
"y. c #2F2F2F",
"u. c #2C2C2C",
"i. c #322E2F",
"p. c #20332B",
"a. c #29332F",
"s. c #332E30",
"d. c #2B3330",
"f. c gray19",
"g. c gray20",
"h. c #323232",
"j. c #353535",
"k. c gray21",
"l. c #373737",
"z. c #343434",
"x. c #3D373A",
"c. c #393939",
"v. c #3A3A3A",
"b. c gray23",
"n. c #3C3C3C",
"m. c #3E3E3E",
"M. c #3F3F3F",
"N. c #3B3B3B",
"B. c #403C3E",
"V. c #014E0B",
"C. c #005706",
"Z. c #005906",
"A. c #005509",
"S. c gray25",
"D. c #414141",
"F. c gray26",
"G. c #434343",
"H. c #444444",
"J. c gray27",
"K. c #464646",
"L. c gray28",
"P. c #434343",
"I. c #424846",
"U. c #4B4B4B",
"Y. c #504E4F",
"T. c #504F50",
"R. c #545454",
"E. c #585758",
"W. c #5A5A5A",
/* pixels */
"            X             X X             X X X X X X     C < + 1 _ h     X X X X X X             X X             X             ",
"          X X X X         p p X         X p p X         + 2 % +     % +         X p p X         X p p         X X X X           ",
"          p X X         X % %           X % X X         % < + +       % +       % h h % X p z T Q Q z X         X X p           ",
"          X X X     S S X   X X X X X             + +                     +         X p Q 1.5.w.w.| T p P P     X X %           ",
"            X X     % p       p p                   X   + + X X           %         r _ y.D.L.L.D.5.! r S Q   + X X             ",
"X X X   X p p p h r X       X p X       X     p                 X     X X +     X X ] f.D.L.L.D.b.1.T r   X p h p p p X   X X X ",
"X X   h h p X       X         X X           % J X             X p X ; X         h ! y.n.L.L.L.n.f.| ! r   X       X p h h   X X ",
"      X X X                   X X X         p C                     X X       % _ w.D.L.L.L.L.b.5.1.! r   X         X X X       ",
"                              X X X         X +         p X         X X       T 0.L.L.L.L.L.L.j.1.1.] z                         ",
"                    X X       X X o X     X X           X X         X X   X z 0.b.L.L.L.L.L.D.y.| 1.] z X X                     ",
"o X X             X h             o X     X o                             S 5.b.L.L.L.L.L.L.b.w.] 1.] T X h X             X X o ",
"X X X               X             X       o                           r z | b.L.L.L.L.L.L.L.f.1.] | | T X X               X X X ",
"          X         X     X       X                                   z | j.D.L.L.L.L.L.L.L.y.| ] | O.! % X         X   X       ",
"    X o X     X     X d P         X                                 X ! w.b.n.n.n.n.n.n.D.L.w.| ] O.| ] J r X   X     X r X     ",
"      X X X X X X   X d P                                         % T 5.f.b.b.b.b.b.b.b.n.D.w.| ] O.| ] J X X X X X X X X       ",
"              X X   X   %       X                                 z 1.f.b.j.j.j.j.j.j.j.b.b.y.1.] O.| _ z       X               ",
"                  X                 X                       % % z | j.b.b.j.j.j.j.j.j.j.j.b.f.5.] ] | _ J X                     ",
"                        % +       % h                       X h ] y.b.b.j.j.j.j.j.j.j.j.j.j.j.w.| ] | ] ! %                     ",
"                                  X p X                     X ! w.j.b.j.j.j.j.j.j.j.j.j.j.j.b.f.1.] | ] ! r                     ",
"                    % + X         P S                     r Q w.j.b.j.j.j.j.j.j.j.j.j.j.j.j.b.j.f.| O.O.] z X                 X ",
"                    X + <       h ( p                   X T 5.j.b.j.j.j.j.j.j.j.j.j.j.j.j.j.j.j.j.y.5.| ] ! z X               X ",
"o                   % < % % < % + X p       X X X X r o z ] w.y.y.y.y.y.y.y.y.y.f.f.y.y.y.y.y.y.y.y.w.1.O._ U V r             o ",
"                    X < +   X % % X r r r r r z z z T T ! 1.y.y.y.y.y.y.y.y.y.y.f.f.f.y.y.y.y.y.y.y.f.e.+.&.*.*.U               ",
"        X           r X     r S J T ! ! ] ] ] ] ] ] | | | 5.b.D.D.D.D.D.D.D.D.D.L.L.L.D.D.D.D.D.D.P.L.x.9.=.A.Z.@..   X         ",
"X X % h P %       X X r z T ! ] ] ] ] ] | 1.8.5.w.y.y.y.1.1.w.f.j.b.b.b.b.b.b.b.b.b.n.n.n.n.n.n.n.b.j.i.8.*.A.Z.@..   h h %     ",
"X % % h C + %   % z T ! ] | | 1.1.1.1.5.w.w.y.y.f.f.f.f.w.5.y.f.j.j.j.j.j.j.f.f.f.f.f.j.j.j.j.j.j.j.j.g.i.-.A.C.@..   % h % X   ",
"      1 ` h h h T ! ] 1.1.5.5.1.5.w.y.f.f.f.y.i.t.w.t.f.w.w.b.D.D.n.b.b.b.j.j.j.f.f.f.f.f.f.f.j.j.b.n.J.J.;.V.V.@..   % %       ",
"      + J 1 P ! ] | w.f.b.b.j.f.f.f.y.5.1.| | | O.O.O.1.1.w.n.R.E.E.E.R.R.R.R.R.R.R.R.R.R.R.R.R.R.R.E.E.T.p.%.#.U %   X +       ",
"  X 1 L % T ,.w.f.j.b.n.D.n.j.g.y.7.1.| | ] ] | | | ] | 1.w.b.R.R.R.R.R.R.R.R.R.R.R.R.R.R.R.R.R.E.E.E.E.R.I.d.` h P +   L 1 X   ",
"X X   < J 1.f.n.D.D.D.D.D.b.j.f.5.| ] ] ] ] | | | | | | 1.w.b.L.L.n.D.D.D.L.L.L.L.L.L.L.L.L.L.L.L.L.R.R.E.E.B.>.% 1 h       X X ",
"      % _ j.D.L.D.D.D.D.D.b.f.y.| ] ] ] ] ] | | | | | | 1.w.n.b.y.5.w.w.w.w.w.w.w.y.y.y.y.y.y.y.y.y.b.U.E.W.D.:.  + h           ",
"      r | b.D.D.D.D.D.D.D.b.f.w.| ] ] ] ] ] | | | | | | 1.w.b.f.f.j.n.n.n.n.n.n.n.n.n.n.n.n.n.n.b.l.f.n.E.E.D.1.% + C X         ",
"      r | n.D.D.D.D.D.D.D.b.f.w.| ] ] ] ] ] | | | | | +.1.y.b.f.f.b.L.L.D.D.D.D.D.D.D.D.D.D.D.D.D.b.y.b.R.E.D.1.C < < X         ",
"      p | b.D.D.D.D.D.D.D.b.f.e.| ] ] ] ] ] | | | | | +.1.w.b.f.f.j.n.n.n.n.b.b.n.n.n.n.n.b.b.b.b.j.f.n.E.E.D.,.p h % X         ",
"      r ! j.D.L.D.D.D.D.D.b.f.y.| ] ] ] ] ] | | | | | 1.1.w.n.b.y.1.w.w.w.w.w.w.w.w.w.y.y.y.y.y.y.y.n.U.E.W.D.:.X X X X X       ",
"      X z :.f.n.D.D.D.G.D.b.j.f.5.| ] ] ] ] ] | | | | | 1.w.b.L.L.D.D.L.L.L.L.L.L.L.L.L.L.L.L.L.L.L.R.R.E.E.B.>.X     X         ",
"        X S | w.y.j.b.n.D.n.j.f.y.w.1.| ] ] ] | | O.] | 1.w.b.R.R.R.R.R.R.R.R.R.R.R.R.R.R.R.R.R.E.E.E.E.R.I.a.` p %             ",
"      1 ` C J / ] +.5.f.j.b.j.f.f.f.y.5.1.+.| | | | | 1.1.w.n.R.R.R.R.R.R.R.R.R.U.U.R.U.U.U.U.R.R.R.R.R.Y.<.=.#.U h h ` 1       ",
"% % % h C + % % / ! ] 1.1.1.1.1.5.w.y.f.f.f.f.f.y.y.y.f.w.w.b.D.D.n.b.b.j.j.f.f.f.f.f.f.f.f.f.f.f.j.n.P.P.-.V.A.@.V + C h % % % ",
"X X % h P X +   X h z T ] | | 1.1.1.8.5.5.w.w.y.f.f.f.f.w.5.y.f.j.j.j.j.j.j.f.f.f.f.j.j.j.j.j.j.j.j.j.g.y.-.A.C.@.1 X P h % X   ",
"        X           d z J T ! ] ] ] ] ] | 1.8.5.w.w.y.w.1.1.y.f.b.b.b.b.b.b.n.n.b.b.n.n.n.n.n.n.n.b.b.s.8.*.A.Z.@..   X         ",
"                            X h M T T ! ! ] ] ) ] ] | | | 5.b.S.D.D.D.D.D.D.D.D.D.D.D.D.D.D.D.D.D.D.D.x.9.=.A.A.@..             ",
"o                             X X X p X X r r 0 z z T T ! | y.w.w.w.y.y.y.y.y.y.y.y.y.y.y.y.y.y.y.y.f.w.| &.$.$.U X           o ",
"                            X   % S r           X X X X z ] w.f.f.y.y.y.y.y.f.f.f.f.f.f.f.f.f.f.f.y.w.1.O._ U V r             X ",
"                    X   C <       X r                   X T 8.j.b.j.j.j.j.j.j.j.j.j.j.j.j.j.j.j.j.y.1.| ] ! f X X             X ",
"                    X + C         X % X                   X T w.j.b.j.j.j.j.j.j.j.j.j.j.j.j.b.j.f.| | | ] z                     ",
"                    % h %         r p                       % ! w.j.b.j.j.j.j.j.j.j.j.j.j.j.b.f.1.] | O._ r                     ",
"                  X % %                                       r ] e.b.b.j.j.j.j.j.j.j.j.j.j.j.w.| ] | ] T X                     ",
"              X X X X % %       X                             X z | f.b.b.j.j.j.j.j.j.j.j.b.f.5.] ] | ] z X X X X               ",
"      X X X X X X X < h P     X X X                       X     h T 1.f.b.j.j.j.j.j.j.j.b.b.y.1.] ] | _ z X X X X X X X X       ",
"    X r X     X   X X h P       X p                       h     + h T 5.f.b.b.b.b.b.b.b.n.n.w.| ] O.| ] J r X         X r X     ",
"      X   X         X     X     X o       X     X   X X r %         X _ w.b.n.n.n.n.n.n.D.L.w.| ] ] | ! r X         X   X       ",
"X X X               X             X       o     X X X X % X           h | j.D.L.L.L.L.L.L.L.y.| ] | ] T X X               X X X ",
"o X X             X h             o X     X X       X                   r O.b.D.L.L.L.L.L.L.f.1.] | | T X h X             X X o ",
"                    r X       X X o X     X X           X                 z 1.b.L.L.L.L.L.L.b.w.] | | T % r                     ",
"                              X X X         X           o                   S 5.b.L.L.L.L.L.D.y.| 1.] z X                       ",
"        X X         p         X X X         X                               % / w.L.L.L.L.L.L.j.1.1.] z   p         X X X       ",
"X X   p h p X     X P X       % X           X                 X p X X       X P O.w.D.L.L.L.L.b.w.1.! f X P X     X p h h   X X ",
"X X X   X p p p C P ' X     X p X       X     X               X X             < Q ( y.n.L.L.L.n.f.| ! r X ' P h p p p X     X X ",
"            X X     _ Q       p p                           X p                   X ] y.n.L.L.D.b.1.Q r Q _     X X             ",
"          X X X     P P X   X X X X X                 + +               +           r ( w.D.L.L.D.5.! h P P     X X %           ",
"          p X X         X % %           X p h %         1 1 + +       < %         < h z Q | 1.5.w.| Q r         X X p           ",
"          X X X X         p p X         X p p X           1 % +   1 < +         X p p X X o z G Q ! S X       X X X X           ",
"            X             X X             X X X X X       h < + 1 ` C     X X X X X X             o X             X             "
};
