/* XPM */
static char *d5d5c17104ed41d5835fe3fea353e983[] = {
/* columns rows colors chars-per-pixel */
"64 64 147 2 ",
"   c #020203",
".  c #0B0605",
"X  c #0C0906",
"o  c #06070A",
"O  c #050608",
"+  c #050609",
"@  c #08070A",
"#  c #08060A",
"$  c #020808",
"%  c #030909",
"&  c #03080A",
"*  c #040809",
"=  c #050909",
"-  c #070809",
";  c #060909",
":  c #05080A",
">  c #04090B",
",  c #06080A",
"<  c #07080A",
"1  c #07080B",
"2  c #060A0C",
"3  c #070B0D",
"4  c #060C0D",
"5  c #070E0F",
"6  c #06090B",
"7  c #0B0908",
"8  c #08080A",
"9  c #0D0A08",
"0  c #0D0B08",
"q  c #0E0C09",
"w  c #0F0C09",
"e  c #0F0C0A",
"r  c #09090C",
"t  c #080A0C",
"y  c #090A0C",
"u  c #090A0D",
"i  c #090B0D",
"p  c #0A0A0D",
"a  c #0A0B0D",
"s  c #080C0C",
"d  c #0B0C0D",
"f  c #0A0C0E",
"g  c #0B0C0F",
"h  c #0A0D0F",
"j  c #080E0E",
"k  c #090F0F",
"l  c #0B0B0C",
"z  c #100907",
"x  c #100A07",
"c  c #100908",
"v  c #110A08",
"b  c #120B09",
"n  c #120C09",
"m  c #130C09",
"M  c #100D0A",
"N  c #130C0A",
"B  c #100E0B",
"V  c #110E0B",
"C  c #120F0B",
"Z  c #140D0A",
"A  c #140D0B",
"S  c #140E0B",
"D  c #150E0B",
"F  c #120F0C",
"G  c #130F0C",
"H  c #150F0C",
"J  c #160F0C",
"K  c #130D0A",
"L  c #13100C",
"P  c #14100D",
"I  c #15110D",
"U  c #16100C",
"Y  c #17110D",
"T  c #15110E",
"R  c #16120E",
"E  c #17130F",
"W  c #15110D",
"Q  c #19120E",
"!  c #19120F",
"~  c #18140F",
"^  c #19120E",
"/  c #0B0E10",
"(  c #0C0E10",
")  c #0D0E12",
"_  c #0E0F13",
"`  c #0C0E12",
"'  c #0E1014",
"]  c #0F1114",
"[  c #0C1314",
"{  c #0E1314",
"}  c #0E1114",
"|  c #171310",
" . c #101214",
".. c #101115",
"X. c #181410",
"o. c #1A1410",
"O. c #1B1510",
"+. c #1A1511",
"@. c #1A1611",
"#. c #1B1611",
"$. c #1B1612",
"%. c #1B1712",
"&. c #1C1510",
"*. c #1C1511",
"=. c #1C1611",
"-. c #1D1612",
";. c #1C1712",
":. c #1D1712",
">. c #1D1713",
",. c #1E1712",
"<. c #1E1713",
"1. c #1B1611",
"2. c #1D1812",
"3. c #1C1813",
"4. c #1D1813",
"5. c #1E1812",
"6. c #1F1813",
"7. c #1E1913",
"8. c #1F1914",
"9. c #1F1A14",
"0. c #1F1A15",
"q. c #1E1914",
"w. c #141B1B",
"e. c #16191C",
"r. c #201914",
"t. c #201A14",
"y. c #201A15",
"u. c #211A15",
"i. c #201B15",
"p. c #211B15",
"a. c #221B15",
"s. c #211B16",
"d. c #221B16",
"f. c #211C16",
"g. c #221C16",
"h. c #231C16",
"j. c #231C17",
"k. c #221D17",
"l. c #231D17",
"z. c #231D17",
"x. c #251E18",
"c. c #27201A",
"v. c #2C231D",
"b. c #30271F",
"n. c #2F2620",
"m. c #302720",
"M. c #352B24",
/* pixels */
"            O             O O             O O O O O O     / 3 $ 4 e.g     O O O O O O             O O             O             ",
"          O O O O         p p O         O p p O         $ 5 ; $     ; $         O p p O         O p p         O O O O           ",
"          p O O         O ; ;           O ; O O         ; 3 $ $       ; $       ; g g O           ; ; O         O O p           ",
"          O O O     ) ) O   O O O O O             $ $                               $     O O O O O   O { {     O O ;           ",
"            O O     ; p       p p                   O                     O                   p p       ) ..  $ O O             ",
"O O O   O p p p g ; O       O p O       O     p                                 O             O p O       O p / p p p O   O O O ",
"O O   g g p O       O         O O           ; /                   . 7 . O                     O ;         O       O p g g   O O ",
"      O O O                   O O O         O ;           O 7 e M I I I M 0                   O O         O         O O O       ",
"                              O O O                     . M @.8.g.g.g.g.p.;.e O                 O                               ",
"                    O O       O O                 7 0 L @.8.g.g.g.g.g.g.g.g.7.M                 O       O O                     ",
"@ O O             O g                   7 e M G I I @.7.p.g.g.g.g.g.g.g.g.g.g.@.M O                       g O             O O @ ",
"O O O               O                 0 I ;.8.p.g.g.g.g.g.g.g.g.g.g.g.g.g.g.g.g.7.M .                     O               O O O ",
"          O         O     O         e 7.g.g.g.g.g.g.g.g.g.g.g.g.g.g.g.g.g.g.g.g.g.8.I 7                   O         O   O       ",
"    O @ O     O     O g {         7 I g.g.g.g.g.g.g.g.g.g.g.g.g.g.g.g.g.g.g.g.g.g.g.7.I e O           O O O O   O     O 8 O     ",
"      O O O O O O   O s {         M ;.g.g.g.g.l.g.g.g.g.g.g.g.g.g.g.g.p.p.p.g.g.g.g.g.p.@.G 0 .               O O O O O O       ",
"              O O   O   ;         I p.g.l.g.g.g.g.g.g.g.g.g.g.g.p.p.7.;.;.;.7.p.p.g.g.g.g.p.;.I e 7 O           O               ",
"                  O             7 @.g.g.g.g.g.g.g.g.g.g.g.g.p.Q Z z 0 . . . . b Z ;.p.g.g.g.g.p.8.7.@.I 7                       ",
"                        ;       M 7.g.g.g.g.g.g.p.g.g.g.;.Q Z b b M Z Z Z Z Z M b M J @.g.g.g.g.g.g.p.7.~ e O                   ",
"                              . @.p.g.g.g.g.g.g.;.;.;.;.J z 0 M I ;.;.8.p.p.7.@.I b b J p.g.g.g.g.g.g.g.g.@.M O                 ",
"                    ; $       0 8.g.g.g.g.g.g.p.M . . . . b ;.p.g.g.g.g.x.x.x.x.g.p.;.;.g.g.l.l.g.g.g.g.g.g.7.M               O ",
"                            O G p.g.g.g.g.l.x.l.;.I Z M I ;.p.g.x.c.v.v.b.b.b.v.v.v.c.x.c.c.c.v.v.c.x.x.g.g.g.7.M             O ",
"@                           e @.g.g.g.x.x.c.v.v.x.p.;.;.p.g.x.c.v.v.m.M.M.M.M.M.M.m.m.n.v.m.m.m.m.v.v.c.x.g.g.g.@.M           @ ",
"                          0 ~ p.g.g.x.x.v.m.M.M.v.c.x.x.x.x.v.m.M.M.M.M.M.M.M.M.M.M.M.M.M.M.M.M.M.M.M.m.c.x.g.g.g.~ 7           ",
"        O             . M @.p.g.g.x.c.v.M.M.M.M.M.m.v.v.v.m.m.M.M.M.M.M.M.M.M.M.M.M.M.M.M.M.M.M.M.M.M.M.v.c.g.g.g.7.L           ",
"O O ; g /         O e I ;.p.g.g.x.c.v.M.M.M.M.M.M.M.M.m.M.M.M.M.M.M.M.M.M.M.M.M.M.M.M.M.M.M.M.M.M.M.M.M.m.v.g.g.g.8.I O         ",
"O ; ; 3 ;       . M @.p.g.g.g.g.x.v.m.M.M.M.M.M.M.M.M.M.M.M.M.M.M.M.M.M.M.M.M.M.M.M.M.M.M.M.M.M.M.M.M.M.M.v.x.g.g.8.I O     O   ",
"              0 @.p.g.g.g.g.g.g.x.m.M.M.M.M.M.M.M.M.M.M.M.M.M.M.M.M.M.M.M.M.M.M.M.M.M.M.M.M.M.M.M.M.M.M.M.v.x.g.g.7.M           ",
"            M @.p.g.g.g.g.g.g.g.x.m.M.M.M.M.M.M.M.M.M.M.M.M.M.M.M.M.M.M.M.M.M.M.M.M.M.M.M.M.M.M.M.M.M.M.M.m.c.x.g.;.0           ",
"          e @.p.g.g.g.g.g.g.p.p.x.v.M.M.M.M.M.M.M.M.M.M.M.M.M.M.M.M.M.M.M.M.M.M.M.M.M.M.M.M.M.M.M.M.M.M.M.m.v.x.g.@.7     ; O   ",
"O       0 @.g.g.g.g.g.g.g.p.;.;.l.v.M.M.M.M.M.M.M.M.M.M.M.M.M.M.M.M.M.M.M.M.M.M.M.M.M.M.M.M.M.M.M.M.M.M.M.m.v.x.g.@.O       O O ",
"        M p.g.g.g.g.g.g.p.Z b I g.v.m.M.M.M.M.M.M.M.M.M.M.M.M.M.M.M.M.M.M.M.M.M.M.M.M.M.M.M.M.M.M.M.M.M.M.m.v.x.p.I             ",
"      O L g.g.g.g.l.l.p.@.0 Z @.g.v.m.M.M.M.M.M.M.M.M.M.M.M.m.m.m.m.m.m.m.m.m.m.m.m.m.m.m.m.m.m.m.m.m.M.M.m.v.x.p.I             ",
"      O I g.g.g.g.g.g.;.Z 0 Q p.l.v.m.M.M.M.M.M.M.M.M.M.m.m.v.v.v.v.v.v.v.v.v.v.v.v.v.v.v.v.v.v.v.v.v.v.v.v.c.l.8.I             ",
"      O I g.g.g.g.g.g.~ z Z ;.l.l.c.m.M.M.M.M.M.M.M.m.v.c.x.x.x.x.x.l.l.l.l.l.l.g.g.g.g.g.g.g.g.l.l.l.l.l.l.l.l.8.I             ",
"      O I g.g.g.g.g.g.~ z Z ;.l.g.c.m.M.M.M.M.M.M.m.v.c.l.p.@.I J J I Q ;.8.p.p.g.p.p.8.8.7.;.@.Q I Z M Q 7.l.l.8.L             ",
"        I g.g.g.g.g.g.@.b M ;.l.g.c.m.M.M.M.M.M.m.v.x.p.;.I M b b b M M Z J I Q Q Q I I J J Z M M b b b Q 7.l.l.8.L             ",
"        L g.g.g.g.g.g.;.J 0 @.g.g.c.m.M.M.M.M.M.v.c.p.;.b . 0 J Q Q I b . . . . . . . . . . 0 b Z I ~ ;.p.g.g.g.8.L             ",
"        M p.g.g.g.g.g.p.Q . Q g.g.c.m.M.M.M.M.m.c.g.;.z b J p.p.p.p.p.p.7.;.~ Q Q Q Q @.;.;.7.8.p.p.p.g.g.l.g.g.7.G     $       ",
"O O     M 7.g.g.g.g.g.p.Q . I p.g.v.m.M.M.M.M.v.x.;.M z J ;.l.g.g.g.l.g.g.g.p.p.p.p.p.p.g.g.g.g.g.g.g.g.g.g.g.g.7.L     O ; ; ; ",
"O       0 7.g.g.g.g.g.p.Q . Z p.g.v.m.M.M.M.b.x.7.Z . J ;.l.g.g.g.g.g.g.g.g.g.g.g.g.g.g.g.g.g.g.g.g.g.g.g.g.g.g.7.L     O ; O O ",
"        7 @.g.g.g.g.g.g.r.0 J 7.x.v.m.M.M.m.v.l.Z 0 b p.g.l.g.g.g.g.g.g.g.g.g.g.g.g.g.g.g.g.g.g.g.g.g.g.g.g.g.g.7.M             ",
"        O M p.g.g.g.g.g.p.z J ;.x.m.M.M.M.v.l.Q 0 M ;.g.x.g.g.g.g.g.g.g.x.g.g.g.g.g.g.g.g.g.g.g.g.g.g.g.g.g.g.g.~ 0             ",
"@         7 7.g.g.g.g.g.p.M Q p.c.m.M.M.m.c.;.b b Q p.g.g.g.g.g.g.g.g.g.g.g.g.g.g.g.g.g.l.l.g.g.g.g.g.g.p.8.@.I 0             @ ",
"O         O ~ p.g.g.g.g.p.Q ;.x.v.M.M.M.m.x.Q . Q p.g.g.g.g.g.g.g.g.g.g.x.g.g.g.g.g.g.g.l.g.g.g.g.g.g.p.@.I 0 O               O ",
"O           e @.g.g.g.g.g.p.l.v.m.M.M.M.v.x.;.J 7.g.g.g.g.g.g.g.x.g.g.g.g.g.g.g.g.g.g.g.g.g.g.g.g.8.@.M .                     O ",
"              M @.8.p.p.g.g.x.c.v.v.v.v.c.l.p.7.g.g.g.g.g.g.g.g.g.g.g.g.g.g.g.g.g.g.g.g.g.g.p.7.@.G 0                           ",
"              O e I I @.;.8.g.x.x.x.x.x.g.g.g.g.g.g.g.g.g.g.g.g.g.g.g.g.g.g.g.g.g.g.g.p.8.7.@.I 0                               ",
"                      O 7 I 7.g.g.g.g.g.g.g.g.g.g.g.g.g.g.g.g.g.g.g.g.g.g.g.g.g.g.g.p.@.I 0 O                                   ",
"                          . e I 8.p.g.g.g.g.g.g.g.g.g.g.g.g.g.g.g.x.g.g.g.g.p.7.Q G 0 7 O                   O O O               ",
"      O O O O O               7 G @.8.g.g.g.g.g.g.g.g.g.g.g.g.g.g.g.g.8.;.@.I M 7 O                   g   O O O O O O O O       ",
"    O 8 O     O   O O ; ;         0 I 8.g.g.g.g.g.g.g.g.g.g.g.g.g.8.;.I e .                 O O       [ ; O O         O 8 O     ",
"      O   O         O               . M 7.g.g.g.g.g.g.g.g.p.7.Q G 0 .                       @ O     O     O         O   O       ",
"O O O               O                   e I I @.~ ~ ~ I L M 0 7 O                   O       O             O               O O O ",
"@ O O             O g                     O 7 7 0 0 7 .                           O O     O @             g O             O O @ ",
"                    8 O       O O O                                               O O     O @ O O       O 8                     ",
"                              O O O                                             $ O         O O         O                       ",
"        O O         p         O O O         O                               O 3 ` p         O O O         p         O O O       ",
"O O   p g p O     O { O       ; O           O                 O p O O       O [ { ;           O O       O { O     O p g p   O O ",
"O O O   O p p p / { e.O     O p O       O     O               O O             3 ) O   O       O p O     O e.{ g p p p O     O O ",
"            O O     e...      p p                           O p                               p p       ..e.    O O             ",
"          O O O     { { O   O O O O O                 $ $               $                 O O O O O   O { {     O O ;           ",
"          p O O         O ; ;           O p g ;         5 4 $ $       3 O         p p O           ; ; O         O O p           ",
"          O O O O         p p O         O p p O           4 ; $   4 3 $         O p p O         O p p         O O O O           ",
"            O             O O             O O O O O       g 3 $ 4 w./     O O O O O O             O O             O             "
};
