/* XPM */
static char *f6487f63501f40279fcef35f12bf1b6c[] = {
/* columns rows colors chars-per-pixel */
"64 64 95 2 ",
"   c black",
".  c #010101",
"X  c #010201",
"o  c #010202",
"O  c #020202",
"+  c #020302",
"@  c #020203",
"#  c #020303",
"$  c gray1",
"%  c #030404",
"&  c #040404",
"*  c gray2",
"=  c #060606",
"-  c #070707",
";  c gray3",
":  c #090808",
">  c #090909",
",  c gray4",
"<  c #0B0B0B",
"1  c #0C0C0C",
"2  c #0C0C0D",
"3  c gray5",
"4  c #0D0E0E",
"5  c #0E0E0E",
"6  c #0F0E0E",
"7  c gray6",
"8  c #0F0F10",
"9  c #100F10",
"0  c #0F1010",
"q  c #101010",
"w  c #111011",
"e  c #101111",
"r  c #111111",
"t  c #111212",
"y  c gray7",
"u  c #121213",
"i  c #121313",
"p  c #131313",
"a  c #141413",
"s  c #131314",
"d  c gray8",
"f  c #141514",
"g  c #151515",
"h  c #161516",
"j  c #161616",
"k  c #171617",
"l  c gray9",
"z  c #181818",
"x  c #181819",
"c  c #191819",
"v  c #191919",
"b  c #1A1919",
"n  c #1A1A19",
"m  c #19191A",
"M  c gray10",
"N  c #1A1B1A",
"B  c #1A1A1B",
"V  c #1B1A1B",
"C  c #1B1B1B",
"Z  c #1B1C1C",
"A  c gray11",
"S  c #1C1C1D",
"D  c #1D1C1D",
"F  c #1C1D1D",
"G  c #1D1D1D",
"H  c #1D1D1E",
"J  c #1E1E1E",
"K  c #1E1E1F",
"L  c #1F1E1F",
"P  c gray12",
"I  c #1F2020",
"U  c #202020",
"Y  c #202120",
"T  c #202121",
"R  c gray13",
"E  c #212222",
"W  c #222222",
"Q  c #222323",
"!  c #232323",
"~  c gray14",
"^  c #252525",
"/  c #262525",
"(  c #262625",
")  c gray15",
"_  c #272626",
"`  c #262726",
"'  c #272727",
"]  c #282828",
"[  c gray16",
"{  c #2A2A2A",
"}  c gray17",
"|  c #2C2B2B",
" . c #2C2C2C",
".. c #2D2D2D",
"X. c gray18",
/* pixels */
". . . . . . . 7 c c c c c c c c c c c c c c c c c c c c c c c c c c c c c c c c c c c c c c c c c c c c c c c c 8 . . . . . . . ",
". . . . . . . 8 c c c c c c c c c c c c c c c c c c c c c c c c c c c c c c c c c c c c c c c c c c c c c c c c 8 . . . . . . . ",
". . . . . . . 7 c c c c R R R R R R R R R R R R R R R R R R R R R R R R R R R R R R R R R R R R R R R R c c c c 8 . . . . . . . ",
". . . . . . . 7 c c c c R X.X.X.X.X.X.X.X.X.X.X.X.X.X.X.X.X.X.X.X.X.X.X.X.X.X.X.X.X.X.X.X.X.X.X.X.~ c 7 c c c c 7 . . . . . . . ",
". . . . . . . 8 c c c c R X.X.X.X.X.X.X.X.X.X.X.X.X.X.X.X.X.X.X.X.X.X.X.X.X.X.X.X.X.X.X.X.X.X.[ 7 . . 7 c c c c 8 . . . . . . . ",
". . . . . . % q c c c c k 7 > & . . . . . . . 7 [ X.X.X.X.X.X.X.X.X.X.X.X.X.X.X.X.X.X.X.X.X.[ . . & k c c c c c q % . . . . . . ",
". . . & & . . 8 c c c c q 7 7 . . . . . . & & . . . 7 ~ X.X.X.X.X.X.X.X.X.X.X.X.X.X.X.X.X.X.& . k R R P c c c c q . . & & . . . ",
"7 7 8 9 9 0 8 7 c c c c P R R R R R R R R R R R q & . . & 7 R X.X.X.X.X.X.X.X.X.X.X.X.X.X.7 . q R R R P c c c c c 7 8 9 9 7 7 7 ",
"c c c c c c c c c c c c P R R R R R R R R R R R R R R & & . . . 7 X.X.X.X.X.X.X.X.X.X.X.7 . > R R R R P c c c c c c c c c c c c ",
"c c c c c c c c c c c c P R R R R R R R R R R R R R R R R R & . . . k q X.X.X.X.X.X.X.X.& > R R R R R R c c c c c c c c c c c c ",
"c c c c c c c c c c c c P R R R R R R R R R R R R R R R R R R P R . . . . k R X.X.X.X.. . q R R R R R R P c c c c c c c c c c c ",
"c c c c c c c c c c c c R R R R R R R R R R R R R R R R R R R R R R P q . . . . q R > . 7 R R R R R R R [ P c c c c c c c c c c ",
"c c P P P P P P P P P R R R R R R R R R R R R R R R R R R R R R R R R R R P k . . . . > R R R R R R R ~ X.X.~ R R R R R R R c c ",
"c c P R R ~ ~ R R R R R R R R ~ ~ ~ R R R R R R R R R R R R R R R R R R R R R R P . . R R R R R R R ~ X.X.X.X.X.X.X.X.X.X.R c c ",
"c c R X.X.X.X.X.X.X.X.X.X.X.X.X.X.X.X.X.X.X.X.[ X.R R R R R R R R R R R R R R R R R c R R R R R R ~ X.X.X.X.X.X.X.X.X.X.X.R c c ",
"c c R X.X.X.X.X.X.X.X.X.X.X.X.X.X.X.X.X.X.X.X.X.X.X.X.X.R R R R R R R R R R R R R R R R R R R R R X.X.X.X.X.X.X.X.X.X.X.X.R c c ",
"c c R X.X.X.X.X.X.X.X.X.X.X.X.X.X.X.X.X.X.X.X.X.X.X.X.X.X.X.| [ R R R R R R R R R R R R R R R R ~ X.X.X.X.X.X.X.X.X.X.X.X.R c c ",
"c c R X.X.X.X.X.X.X.X.X.X.X.X.X.X.X.X.X.X.X.X.X.X.X.X.X.X.X.X.X.X.[ [ R R R R R R R R R R R R ~ X.X.X.X.X.X.X.X.X.X.X.X.X.R c c ",
"c c R X.X.X.X.X.X.X.X.X.X.X.X.X.X.X.X.X.X.X.X.X.X.X.X.X.X.X.X.X.X.X.X.X.[ [ R R R R R R R R R X.X.X.X.X.X.X.X.X.X.X.X.[ c 7 c c ",
"c c R X.X.X.X.X.X.X.X.X.X.X.X.X.X.X.X.X.X.X.X.X.X.~ P X.X.X.X.X.X.X.X.X.X.X.X.X.X.R R R R R X.X.X.X.X.X.X.X.X.X.R q 7 . . 7 c c ",
"c c R X.X.X.X.X.X.X.X.X.X.X.X.X.X.X.X.X.X.X.X.7 & . . 7 X.X.X.X.X.X.X.X.X.X.X.X.X.X.X.| ~ X.X.X.X.X.X.X.X.X.X.> . . . & 7 k c c ",
"c c R X.X.X.X.X.X.X.X.X.X.X.X.X.X.X.X.X.X.. . . . . . . ~ X.X.X.X.X.X.X.X.X.X.X.X.X.X.X.X.X.X.X.X.X.X.X.X.X.X.. . k c c c c c c ",
"c c R X.X.X.X.X.X.X.X.X.X.X.X.X.X.P k . . . . P . & q . R X.X.X.X.X.X.X.X.X.X.X.X.X.X.X.X.X.X.X.X.X.X.X.X.X.R . c c c c c c c c ",
"c c R X.X.X.X.X.X.X.X.X.X.X.R > . . . & > P P & . q P . . X.X.X.X.X.X.X.X.X.X.X.X.X.X.X.X.X.X.X.X.X.X.X.X.X.> . c c c c c c c c ",
"c c R X.X.X.X.X.X.X.X.| ~ . . . . k c P P P > . > P P & . > X.X.X.X.X.X.X.X.X.X.X.X.X.X.X.X.X.X.X.X.X.X.X.X.7 > c c c c c c c c ",
"c c R X.X.X.X.X.[ k q . . . & P P P P P P P . . P P P P . . ~ X.X.X.X.X.X.X.X.X.X.X.X.X.X.X.X.X.X.X.X.X.X.X.7 & c c c c c c c c ",
"c c c X.X.X.X.. . . . > 7 P P P P P P P P & . P P P P P k . q X.X.X.X.X.X.X.X.X.X.X.X.X.X.X.X.X.X.X.X.X.X.X.. & c c c c c c c c ",
"c c 7 c R . . . . c P P P P P P P P P P . . > P P P P P P & . [ X.X.X.X.X.X.X.X.X.X.X.X.X.X.X.X.X.X.X.X.X.X.. . c c c c c c c c ",
"c c q . . . & P P P P P P P P P P P P c . > P P P P P P P k . & X.X.X.X.X.X.X.X.X.X.X.X.X.X.X.X.X.X.X.X.X.[ . c c c c c c P c c ",
"c c c q q P P P P P P P P P P P P P Z . . k P P P P P P P P > . ~ X.X.X.X.X.X.X.X.X.X.X.X.X.X.X.X.X.X.X.X.k . k c c c c c P c c ",
"c c c P P P P P P P P P P P P P P R & . k [ R P P P P P P P c . q X.X.X.X.X.X.X.X.X.X.X.X.X.X.X.X.X.X.X.X.c . s c c c c Z P c c ",
"c c c P P P P P P P P P P P P P ~ R . . [ [ [ P P P P P P P P & . X.X.X.X.X.X.X.X.X.X.X.X.X.X.X.X.X.X.X.X.c . q c c c c R P c c ",
"c c c P P P P P P P P P P P R [ [ . . P [ [ [ ~ P P P P P P P q . . X.X.X.X.X.X.X.X.X.X.X.X.X.X.X.X.X.X.X.. . c c c c Z R P c c ",
"c c c P P P P P P P P P P ~ [ [ 7 . P [ [ [ [ [ R P P P P P P P & . c X.X.X.X.X.X.X.X.X.X.X.X.X.X.X.X.~ P . . c c c c R R P c c ",
"c c c P P P P P P P ~ ~ [ [ [ ~ . . ~ [ [ [ [ [ [ R P P P P P P c . . X.X.X.X.X.X.X.X.X.X.X.X.X.P 7 > . . . & c c c c R R P c c ",
"c c c P P P P P a [ [ [ [ [ ~ . . ~ [ [ [ [ [ [ [ [ P P P P P P P > . X.X.X.X.X.X.X.X.X.X.& . . . . > 7 q c c c c c c R R P c c ",
"c c c P P c R R [ [ [ [ [ [ . . c [ [ [ [ [ [ [ [ [ [ P P P P P P P . . X.X.X.X.X.& . . . . . k l c c c c c c c c c R R R P c c ",
"c c c P k [ [ [ [ [ [ [ [ R . . [ [ [ [ [ [ [ [ [ [ [ R P P P P P P . . 7 P & . . . . . c c c c c c c c c c c c c c R R c q c c ",
"c c c ~ [ [ [ [ [ [ [ [ R . . R [ [ [ [ [ [ ~ [ [ [ [ [ P P P P P P P . . . & & > c c c c c c c c c c c c c c c c P c > . 7 c c ",
"c c P [ [ [ [ [ [ [ [ [ c . c [ [ [ ~ [ [ [ [ [ [ [ [ [ [ P P P P P P . & q c c c c c c c c c c c c c c c c P P R K . . > P c c ",
"c c P [ [ [ [ [ [ [ [ [ P . k [ [ [ [ [ [ ~ [ [ [ [ [ [ [ ~ P P P P & . c c c c c c c c c c c c c c c R R Q R Z 7 . . P R P c c ",
"c c P [ [ [ [ [ [ [ [ [ R . q [ [ [ [ [ [ [ [ [ [ [ [ [ [ [ R P P P . > c c c c c c c c c c c c R R R R Q Q R . . & R R R P c c ",
"c c P [ [ [ [ [ [ [ [ [ ~ . 7 [ [ [ [ [ [ [ [ [ [ [ [ [ [ [ [ R P . . q c c c c c c c P P R R R R R R Q Q Q & . c R R R R P c c ",
"c c P [ [ ~ [ [ [ [ [ [ [ . > [ [ [ [ ~ [ [ [ [ [ [ [ [ [ [ [ ~ c . 7 c c c c c I R R R Q Q R R R R R Q Q Q > . R R R R R P c c ",
"c c P [ [ [ [ [ [ [ [ [ [ . & [ [ [ [ [ [ [ [ [ [ [ [ [ [ [ ~ [ 7 . k c c P R R Q Q Q R Q Q Q Q Q Q Q Q R R . . R R R R R P c c ",
"c c P [ [ [ ~ [ [ [ [ [ [ & . ~ [ [ [ [ [ [ [ [ [ [ [ [ [ [ ~ ~ . & P R R R R R Q Q Q R Q Q Q Q Q Q Q Q R R . & R R R R R P c c ",
"c c P [ [ [ [ [ [ [ [ [ [ P . c [ [ [ [ [ [ [ [ ~ [ [ [ [ [ [ R . q R R R R Q Q Q Q R R R R Q R Q Q R R R R . % Q Q R R R P c c ",
"c c P [ [ [ [ [ [ [ [ [ [ R . k [ [ [ [ ~ [ [ [ [ [ [ [ [ [ [ . . R R R R R Q Q Q Q R R R R R R R Q R R R R . . Q Q Q R R P c c ",
"c c P [ [ [ [ [ [ [ [ [ [ ~ . 7 [ [ [ [ [ [ [ [ [ [ [ [ [ [ P . k R R R Q Q Q Q R R R R R R Q Q R R Q Q Q Q . . R R R R R P c c ",
"c c P [ [ [ [ [ [ [ [ [ [ [ . > [ [ [ [ [ [ [ [ [ [ [ [ ] [ 7 . I R R R Q Q Q Q R R R R Q Q Q Q R R Q R Q d . & R R R R R P c c ",
"c c P [ [ [ [ [ [ [ [ [ [ [ . & [ [ [ [ [ [ [ [ [ [ [ [ ] k . > R R Q R R Q R R R R Q Q Q Q Q Q R R R R R k . l R R R R R P c c ",
"c c P P P P P P P P R [ ~ > . . [ [ [ [ [ [ [ [ [ [ [ [ ] & . R R R Q Q R Q Q Q R Q Q Q Q Q Q Q R R R R R c 7 k P P P P P P c c ",
"c c c c c c c c c c c k . . > [ [ [ [ [ [ [ [ [ [ [ [ [ P . q R R R R R R R R R Q Q Q Q R Q Q Q R R R R c c c c c c c c c c c c ",
"c c c c c c c c c c c c q [ [ [ [ ~ [ [ [ [ ~ [ [ [ [ [ k . P R R R R Q R R Q R Q Q Q Q R Q Q Q R R R P c c c c c c c c c c c c ",
"c c c c c c c c c c c c P [ [ [ [ [ [ [ [ [ [ [ [ [ [ [ . . R R R R Q Q Q Q Q Q R Q R R R R Q Q R R R P c c c c c c c c c c c c ",
"c c c c c c c c c c c c P [ [ [ [ [ [ [ [ [ [ [ [ [ [ q . I R R R R Q Q Q Q Q R R R R R R R Q Q R R R P c c c c c c c c c c c c ",
"7 7 7 7 8 8 7 7 c c c c P [ [ [ [ [ [ [ [ [ [ [ [ [ [ . & c P R R Q Q Q R R Q Q Q Q Q Q R R R Q R R Q P c c c c 7 7 7 8 7 7 7 7 ",
". . . & & . . 0 c c c c P [ [ [ [ [ [ [ [ [ [ [ [ [ c . q c c c P R Q Q R R Q Q Q Q Q Q R R Q Q R R Q P c c c c 0 . . & & . . . ",
". . . . . & % q c c c c P [ [ [ [ [ [ ~ [ [ [ [ [ [ . . c c c c c c R R R R R R R R Q R R R R R Q Q Q q c c c c q % & . . . . . ",
". . . . . . . 9 c c c c P [ [ [ [ [ [ [ [ [ [ [ [ q . c c c c c c c c C Z R R R R R R R R R R R Q Q 7 0 c c c c 9 . . . . . . . ",
". . . . . . . 8 c c c c P [ [ [ [ [ [ [ [ [ [ R P & & c c c c c c c c c c Z P R R R R R R R R R R 7 . q c c c c 8 . . . . . . . ",
". . . . . . . 7 c c c c P P P P P P P P P P c c c 7 q c c c c c c c c c c c c c c P P P P P P P k 7 q P c c c c 7 . . . . . . . ",
". . . . . . . 8 c c c c c c c c c c c c c c c c c c c c c c c c c c c c c c c c c c c c c c c c c c c c c c c c 8 . . . . . . . ",
". . . . . . . 7 c c c c c c c c c c c c c c c c c c c c c c c c c c c c c c c c c c c c c c c c c c c c c c c c 7 . . . . . . . "
};
